<?xml version="1.0" standalone="no"?>
<!DOCTYPE svg PUBLIC "-//W3C//DTD SVG 20010904//EN"
 "http://www.w3.org/TR/2001/REC-SVG-20010904/DTD/svg10.dtd">
<svg version="1.0" xmlns="http://www.w3.org/2000/svg"
 width="1024.000000pt" height="1024.000000pt" viewBox="0 0 1024.000000 1024.000000"
 preserveAspectRatio="xMidYMid meet">

<g transform="translate(0.000000,1024.000000) scale(0.100000,-0.100000)"
fill="#000000" stroke="none">
<path d="M0 5120 l0 -5120 5120 0 5120 0 0 5120 0 5120 -5120 0 -5120 0 0
-5120z m2280 3474 c22 -9 40 -23 40 -31 0 -13 2 -13 17 -2 9 8 14 9 10 3 -10
-17 23 -27 40 -12 11 9 16 9 23 -2 11 -18 2 -33 -15 -26 -9 3 -13 -2 -12 -15
1 -10 5 -19 9 -19 5 0 -1 -13 -14 -30 -12 -16 -25 -30 -29 -30 -4 0 -22 -13
-40 -30 -18 -16 -35 -27 -37 -25 -3 3 -8 22 -11 42 -5 32 -11 38 -34 41 -23 3
-27 8 -26 30 1 15 -3 39 -9 55 -10 24 -9 27 7 27 10 0 21 9 24 20 6 24 6 24
57 4z m2308 -286 c7 -6 12 -6 12 -1 0 17 84 9 103 -10 14 -14 21 -16 33 -7 7
7 11 17 7 22 -3 6 0 8 8 6 8 -3 13 -11 11 -18 -3 -11 0 -11 12 0 14 10 16 10
17 -6 0 -18 1 -18 8 1 7 17 9 16 15 -12 5 -20 14 -33 23 -33 8 0 17 -8 20 -18
3 -14 11 -18 29 -14 13 2 30 0 37 -6 14 -12 53 -6 74 10 20 16 35 0 22 -23
-13 -26 -1 -41 13 -16 7 13 13 15 22 8 7 -6 22 -9 34 -6 22 4 48 -25 35 -38
-12 -12 29 -19 50 -9 12 6 36 13 52 15 52 9 85 26 85 43 0 13 3 14 15 4 8 -7
12 -16 9 -21 -6 -10 16 -13 56 -10 24 2 24 2 5 -13 -19 -14 -19 -15 -1 -22 11
-4 21 -2 26 6 4 7 13 9 19 6 6 -4 12 -2 12 3 1 6 2 17 3 23 0 7 9 14 20 16 10
2 16 0 12 -6 -3 -5 5 -7 19 -4 14 2 25 8 25 13 0 5 -8 6 -17 2 -14 -4 -14 -2
2 10 11 8 32 15 47 15 23 0 25 -2 12 -15 -19 -19 -18 -21 10 -16 13 3 29 17
36 31 9 21 14 23 19 12 6 -15 51 -21 61 -8 3 4 12 3 20 -3 13 -8 13 -10 0 -19
-13 -8 -12 -10 3 -10 9 0 17 4 17 9 0 5 12 8 26 6 30 -3 49 -26 31 -37 -7 -4
-9 -8 -5 -8 3 0 13 -3 22 -6 11 -4 16 -1 16 11 0 10 4 13 12 9 19 -12 48 -12
48 0 0 6 7 1 15 -11 9 -13 22 -20 30 -17 10 4 15 0 15 -10 0 -13 8 -15 38 -12
20 3 44 1 52 -5 13 -8 12 -11 -4 -24 -19 -15 -19 -15 2 -15 12 0 22 -4 22 -10
0 -5 -6 -10 -14 -10 -8 0 -18 -5 -22 -12 -5 -8 -2 -9 9 -5 11 4 17 1 17 -8 0
-7 4 -17 10 -20 6 -3 7 1 4 9 -3 9 -1 16 5 16 6 0 11 -5 11 -11 0 -5 5 -7 10
-4 6 3 10 15 10 26 0 10 5 19 10 19 6 0 10 -8 8 -17 -2 -10 2 -18 9 -18 28 0
23 -15 -5 -15 -34 0 -52 -18 -31 -31 9 -6 18 -3 25 6 10 14 12 14 18 0 7 -19
26 -20 26 0 0 9 6 12 17 8 12 -5 14 -3 8 7 -5 9 -4 11 3 6 9 -5 7 -14 -4 -32
-15 -22 -15 -24 0 -18 9 3 16 9 16 13 0 5 40 6 83 2 14 -2 7 -21 -8 -21 -8 0
-15 -5 -15 -11 0 -6 7 -9 15 -6 8 4 17 2 20 -3 3 -4 -1 -11 -7 -13 -8 -3 -6
-6 5 -6 9 -1 17 -5 17 -10 0 -5 16 -11 35 -13 22 -2 34 0 32 6 -2 6 -14 9 -27
8 -21 -3 -22 -2 -11 12 7 9 17 13 22 10 5 -3 9 0 9 5 0 17 47 13 54 -4 3 -8
13 -15 21 -15 9 0 13 -4 10 -10 -3 -5 -1 -10 4 -10 6 0 11 -5 11 -11 0 -5 -6
-7 -12 -3 -7 4 -9 3 -5 -1 11 -13 38 -15 31 -3 -4 6 2 8 12 6 13 -2 18 -11 17
-25 -2 -14 4 -24 18 -28 16 -5 18 -9 8 -21 -10 -12 -9 -13 5 -8 9 3 16 10 16
14 0 13 29 20 36 8 4 -7 3 -8 -4 -4 -7 4 -12 2 -12 -3 0 -11 11 -14 40 -12 10
0 11 -1 3 -5 -18 -8 -16 -31 3 -38 9 -4 19 -4 22 -1 3 3 0 5 -6 5 -7 0 -12 4
-12 9 0 5 11 9 25 9 14 0 24 -3 21 -5 -3 -3 2 -12 10 -21 9 -8 13 -23 11 -33
-3 -11 2 -19 14 -22 11 -3 19 -1 19 4 0 5 -5 9 -11 9 -5 0 -8 4 -4 10 3 5 13
6 22 3 9 -4 21 1 28 11 8 10 16 13 19 7 4 -5 2 -12 -3 -16 -6 -3 -7 -13 -4
-22 4 -10 2 -14 -4 -10 -15 9 -22 -49 -9 -64 8 -9 7 -10 -6 -6 -12 4 -15 2
-11 -9 7 -18 19 -18 27 1 3 8 16 14 28 14 18 -1 19 -2 5 -6 -11 -3 -16 -11
-13 -19 3 -9 -1 -14 -13 -14 -23 0 -31 -8 -24 -26 3 -8 17 -14 32 -14 15 0 21
-3 14 -8 -8 -5 -8 -12 2 -25 13 -17 14 -17 27 1 12 17 48 37 48 26 0 -3 -7
-18 -15 -33 -12 -25 -13 -31 0 -41 8 -6 22 -13 32 -15 10 -1 16 -9 14 -16 -8
-30 -5 -44 8 -41 8 2 11 -3 8 -12 -4 -9 -3 -15 1 -14 12 3 52 -13 52 -21 0 -4
6 -8 13 -8 6 -1 37 -6 67 -12 79 -17 188 -15 232 3 21 9 47 16 58 16 11 0 20
5 20 11 0 6 9 9 20 6 11 -3 20 -2 20 2 0 3 18 7 41 7 37 1 61 9 114 37 11 6
71 11 133 13 90 1 117 5 132 19 10 9 27 18 37 19 12 2 17 11 15 27 l-2 23 22
-21 23 -22 55 20 c64 23 127 24 155 4 14 -11 33 -13 70 -9 73 10 104 31 117
81 9 37 15 44 46 53 24 6 40 6 48 -1 14 -11 53 1 94 31 29 21 94 27 105 10 8
-12 75 -44 95 -45 26 -1 68 24 73 42 15 54 20 79 18 87 -1 4 3 14 10 22 9 11
16 10 39 -8 16 -11 41 -20 57 -20 18 0 38 -11 56 -30 17 -17 35 -27 43 -24 9
3 12 2 9 -5 -4 -6 1 -9 11 -7 12 2 18 -2 16 -11 -3 -12 0 -12 12 -2 11 10 17
8 30 -10 8 -12 13 -26 10 -31 -3 -4 2 -8 10 -8 8 0 18 5 21 10 3 6 19 10 35
10 15 0 30 6 33 13 5 15 55 -37 77 -79 8 -16 25 -46 37 -66 52 -85 124 -231
119 -243 -3 -8 -43 -14 -119 -19 -63 -4 -129 -11 -147 -16 -20 -6 -39 -6 -50
0 -12 6 -23 5 -36 -4 -16 -13 -15 -14 17 -21 19 -4 48 -9 64 -10 17 -1 46 -9
65 -18 l35 -15 -42 -1 c-45 -1 -62 -21 -19 -21 14 0 27 -4 30 -9 8 -13 -28
-20 -48 -9 -9 5 -16 5 -16 0 0 -5 -10 -14 -22 -20 -19 -9 -13 -11 40 -11 38
-1 62 -5 62 -12 0 -7 9 -9 21 -6 13 3 19 1 16 -6 -2 -7 -10 -13 -18 -14 -60
-8 -89 -15 -89 -23 0 -6 8 -10 18 -11 11 -1 9 -4 -8 -9 -23 -7 -23 -8 10 -10
19 -1 49 -4 65 -5 17 -2 77 -6 135 -10 153 -11 195 -18 195 -34 0 -17 -51 -24
-77 -10 -11 6 -55 12 -99 14 -43 2 -89 7 -100 10 -15 5 -19 4 -15 -4 4 -6 19
-11 34 -12 27 -1 27 -1 3 -8 -21 -5 -17 -8 28 -20 28 -7 64 -10 79 -7 17 4 22
3 14 -2 -9 -6 4 -15 42 -29 l55 -20 -6 28 c-4 21 -2 29 8 29 23 0 43 -16 30
-24 -18 -11 -13 -24 12 -32 27 -8 67 -50 67 -70 0 -11 -9 -13 -42 -8 l-43 6
35 -31 c19 -17 38 -31 43 -31 4 0 7 -4 7 -9 0 -5 -13 -3 -30 5 -16 9 -35 12
-41 8 -8 -4 -9 -3 -5 4 4 7 2 12 -5 12 -7 0 -29 11 -49 25 -20 14 -50 26 -66
26 -64 1 -121 -3 -133 -10 -7 -5 -30 -5 -52 -1 -31 6 -42 4 -46 -6 -3 -8 -15
-14 -28 -14 -17 0 -24 -7 -28 -27 -6 -33 24 -89 77 -145 20 -20 36 -41 36 -47
0 -5 9 -13 20 -16 11 -3 20 -12 20 -19 0 -7 10 -21 21 -32 30 -26 99 -114 99
-125 0 -23 -22 -4 -63 54 -25 34 -86 101 -136 150 -82 78 -95 87 -130 87 -34
0 -43 6 -87 56 -75 86 -82 91 -132 96 -26 3 -67 15 -91 26 -25 12 -59 22 -75
23 -29 0 -29 1 -8 9 12 5 22 15 22 22 0 9 -3 9 -11 -2 -8 -11 -12 -12 -16 -2
-3 7 -23 12 -51 12 -25 0 -42 -3 -39 -7 4 -3 -1 -12 -11 -19 -23 -17 -13 -24
39 -29 59 -6 77 -10 85 -18 4 -4 16 -7 26 -7 10 0 21 -6 24 -14 4 -12 54 -30
113 -42 20 -4 40 -26 21 -24 -8 1 -30 2 -48 1 -30 -1 -32 -3 -22 -22 7 -11 28
-38 47 -60 20 -22 29 -37 20 -33 -9 3 -43 40 -75 83 l-60 77 -80 -1 c-110 0
-137 -29 -54 -56 45 -15 116 -84 108 -105 -3 -9 -1 -12 4 -9 6 4 10 -7 10 -24
0 -17 -2 -31 -5 -31 -2 0 -35 32 -73 70 -38 39 -76 70 -85 70 -20 0 -21 -4 -5
-30 21 -33 0 -34 -28 -1 -14 17 -47 43 -73 58 -63 36 -81 53 -81 75 0 10 -4
18 -9 18 -5 0 -18 3 -28 6 -16 6 -16 5 2 -10 l20 -16 -20 7 c-11 3 -29 12 -40
19 -29 18 -90 25 -120 14 -22 -8 -24 -13 -15 -29 14 -28 13 -33 -7 -22 -44 24
-94 43 -100 38 -3 -4 -14 -2 -24 3 -9 6 -25 7 -33 4 -14 -5 -12 -11 9 -36 27
-31 25 -51 -2 -41 -9 4 -34 24 -56 45 -27 26 -48 38 -68 38 -16 0 -29 -5 -29
-10 0 -15 86 -130 109 -147 32 -22 74 -99 66 -123 -4 -11 -12 -18 -18 -14 -7
3 -4 -1 6 -9 16 -14 23 -37 11 -37 -4 0 -26 20 -50 45 -23 25 -48 45 -56 45
-15 0 -75 66 -84 92 -3 10 -12 18 -20 18 -8 0 -17 7 -20 15 -3 8 -21 19 -40
25 -19 6 -34 18 -34 26 0 8 -9 14 -20 14 -14 0 -18 -5 -13 -17 6 -16 5 -17
-12 -3 -17 14 -17 14 -4 -7 7 -12 26 -28 42 -34 37 -15 58 -47 51 -76 -4 -16
2 -34 20 -58 15 -19 25 -35 22 -35 -3 0 -37 32 -75 70 -62 61 -91 82 -91 65 0
-3 20 -30 45 -61 25 -30 45 -61 45 -69 0 -8 4 -15 9 -15 5 0 15 -15 22 -32 7
-18 15 -37 17 -43 3 -5 -4 -1 -14 11 -11 12 -45 51 -78 87 -32 36 -61 65 -65
65 -3 -1 -21 6 -39 15 -18 10 -36 15 -41 13 -5 -3 -11 3 -14 14 -3 12 -14 20
-26 20 -25 0 -37 -22 -25 -47 30 -67 -3 -68 -63 -3 -36 40 -156 120 -179 120
-8 0 13 -34 40 -63 34 -37 50 -67 50 -98 1 -14 8 -35 16 -45 14 -19 14 -19 -7
0 -13 10 -20 23 -17 27 3 5 1 9 -4 9 -11 0 -54 65 -62 95 -7 23 -40 33 -40 12
0 -8 7 -17 15 -21 8 -3 12 -12 9 -21 -3 -8 -11 -12 -18 -9 -6 3 3 -7 20 -23
17 -15 30 -34 29 -40 -2 -7 -3 -17 -4 -23 -2 -15 -50 11 -56 30 -3 10 -23 34
-45 54 -22 20 -40 41 -40 47 0 5 -11 7 -25 3 -16 -4 -35 0 -53 12 -15 10 -31
17 -35 16 -30 -9 -82 -10 -104 -1 -30 11 -46 -4 -37 -35 4 -12 2 -16 -5 -12
-11 7 -14 -3 -12 -34 0 -10 -1 -11 -5 -2 -3 6 -10 10 -14 7 -5 -3 -15 3 -22
13 -13 18 -43 20 -87 6 -17 -5 -22 -4 -17 4 4 7 2 10 -7 6 -18 -6 -41 21 -31
37 5 9 2 10 -9 6 -27 -10 -44 2 -78 54 -17 27 -35 46 -40 43 -15 -9 -10 8 8
29 17 18 17 19 -2 33 -10 8 -13 14 -6 14 7 0 10 4 6 10 -9 15 -35 0 -41 -26
-3 -13 -10 -24 -15 -24 -10 0 -8 22 2 30 10 8 -9 50 -22 50 -7 0 -9 -11 -5
-30 4 -22 2 -30 -7 -29 -6 1 -20 -1 -30 -6 -17 -7 -17 -8 0 -21 17 -12 16 -13
-5 -11 -19 1 -22 5 -17 29 4 17 2 28 -4 28 -6 0 -17 11 -23 25 -11 25 -9 34
23 97 5 10 9 26 9 36 0 11 9 27 21 38 13 12 19 27 16 41 -2 13 0 23 4 23 5 0
9 -4 9 -10 0 -5 4 -10 10 -10 16 0 -1 30 -19 31 -10 0 -11 2 -3 6 6 2 12 9 12
15 0 6 -9 3 -19 -6 -18 -17 -19 -16 -31 20 -8 23 -15 32 -20 24 -6 -10 -9 -10
-15 0 -4 7 -2 16 6 21 11 7 11 14 2 40 -7 18 -10 36 -7 40 3 5 0 9 -5 9 -6 0
-11 5 -11 10 0 6 5 9 11 8 6 -2 12 7 14 20 1 12 -2 22 -7 22 -4 0 -8 -5 -8
-12 0 -6 -3 -8 -7 -5 -3 4 6 18 20 31 31 28 27 57 -5 48 -14 -3 -19 -1 -14 6
3 6 -2 12 -14 14 -12 2 -20 7 -20 11 1 11 -27 37 -39 37 -6 0 -11 12 -11 28 0
90 -6 144 -19 151 -8 5 -11 16 -8 24 4 12 2 14 -10 10 -10 -4 -14 -2 -10 4 9
14 -19 37 -33 28 -6 -3 -10 3 -10 14 0 12 -13 34 -30 49 -16 16 -27 31 -25 34
3 3 -9 4 -28 3 -26 -2 -35 2 -43 18 -5 12 -16 21 -23 19 -7 -1 -18 4 -25 13
-6 9 -22 14 -36 13 -18 -2 -24 1 -22 13 3 18 -25 46 -35 35 -4 -4 -1 -11 7
-16 8 -5 11 -12 7 -16 -3 -4 -23 6 -43 21 -49 37 -126 51 -160 28 -14 -9 -27
-13 -31 -9 -3 3 -12 1 -20 -5 -10 -9 -13 -8 -13 1 0 10 -3 10 -15 0 -8 -7 -13
-16 -10 -20 5 -8 -51 -35 -58 -29 -2 2 -11 -2 -20 -10 -16 -12 -21 -8 -18 12
1 4 -8 3 -20 -3 -16 -9 -24 -8 -39 5 -18 16 -21 16 -50 -5 -26 -18 -33 -20
-46 -9 -14 11 -18 10 -30 -6 -8 -10 -14 -14 -14 -7 0 13 -31 4 -42 -12 -5 -7
-8 -7 -8 2 0 7 -5 10 -12 6 -17 -10 -112 -11 -119 -1 -12 16 -48 -13 -51 -40
-2 -21 -9 -29 -28 -31 -14 -2 -34 -12 -45 -21 -23 -21 -56 -35 -70 -32 -5 2
-19 5 -30 7 -11 2 -21 8 -23 14 -2 6 -14 5 -30 -3 -15 -7 -42 -12 -59 -11 -18
1 -33 -1 -33 -6 0 -16 -107 -62 -129 -55 -12 3 -21 3 -20 -2 4 -24 -2 -53 -12
-53 -6 0 -8 9 -4 20 5 14 2 20 -9 20 -31 0 -10 -50 26 -63 7 -2 9 -8 5 -13 -4
-5 -12 -3 -16 5 -15 24 -20 -26 -5 -54 15 -29 11 -45 -11 -45 -9 0 -12 -6 -9
-15 4 -8 1 -15 -5 -15 -6 0 -11 5 -11 10 0 6 -7 10 -15 10 -8 0 -15 -5 -15
-11 0 -8 -4 -8 -12 -1 -7 5 -35 8 -63 5 -94 -8 -124 -7 -150 7 -24 13 -28 13
-41 -5 -12 -16 -14 -17 -14 -2 0 9 -4 17 -10 17 -5 0 -10 -7 -10 -15 0 -8 -5
-15 -12 -15 -18 0 -47 -31 -42 -44 3 -7 -7 -18 -21 -24 -27 -12 -33 -40 -12
-61 10 -10 5 -11 -25 -6 -41 8 -56 -12 -18 -22 11 -3 20 -9 20 -14 0 -13 -13
-11 -39 8 -14 9 -21 12 -18 6 4 -6 -1 -14 -10 -17 -14 -6 -15 -9 -4 -15 21
-13 9 -46 -19 -49 -24 -3 -24 -3 -5 12 16 11 17 17 8 27 -10 10 -18 7 -39 -16
-16 -17 -22 -31 -15 -33 6 -2 11 -8 11 -13 0 -4 -7 -6 -15 -3 -8 4 -15 1 -15
-5 0 -6 -6 -11 -14 -11 -8 0 -17 -7 -20 -16 -3 -8 -11 -12 -17 -8 -6 3 -15 0
-20 -7 -6 -11 -9 -11 -9 -1 0 9 -5 9 -23 -2 -14 -10 -27 -12 -37 -6 -18 11
-50 -5 -50 -25 0 -8 5 -15 12 -15 6 0 9 -2 6 -5 -10 -10 -38 7 -31 19 4 8 3 8
-7 0 -7 -7 -9 -21 -5 -34 5 -15 10 -19 14 -11 6 9 11 8 20 -3 14 -16 5 -25
-33 -32 -20 -3 -23 0 -20 21 2 22 -2 25 -28 25 -23 0 -29 4 -24 16 3 8 2 13
-3 10 -5 -3 -11 -14 -14 -25 -3 -13 0 -17 12 -14 9 2 22 -5 28 -16 19 -30 -4
-37 -38 -12 -28 21 -29 21 -29 2 0 -49 -20 -63 -52 -35 -14 13 -21 14 -32 5
-11 -9 -19 -9 -35 0 -17 11 -23 10 -40 -5 -12 -11 -21 -16 -21 -11 0 4 8 14
18 21 16 12 16 14 -1 31 -18 17 -19 17 -32 -1 -9 -12 -20 -16 -31 -12 -10 4
-21 1 -26 -6 -5 -9 -8 -4 -8 15 0 26 -14 34 -45 27 -5 -1 -16 -3 -22 -3 -7 0
-13 -4 -13 -9 0 -5 -4 -7 -9 -4 -5 3 -7 16 -3 28 3 14 2 19 -6 14 -7 -4 -12
-13 -12 -20 0 -7 -12 -13 -30 -13 -24 0 -27 3 -19 14 6 7 9 13 6 13 -3 0 -13
3 -23 7 -14 5 -16 2 -11 -16 4 -18 2 -21 -11 -15 -25 10 -54 7 -63 -8 -7 -10
-9 -8 -9 5 0 11 -5 17 -12 14 -7 -2 -12 -9 -11 -14 1 -5 -7 -9 -18 -9 -10 0
-19 6 -19 12 0 7 -11 15 -25 18 -14 4 -25 14 -25 24 -1 15 -2 15 -12 -2 -8
-15 -8 -21 0 -24 22 -7 13 -40 -13 -46 -16 -4 -25 -13 -25 -26 0 -30 -16 -24
-30 10 -12 28 -14 29 -30 15 -9 -8 -20 -12 -23 -8 -4 3 -7 -2 -7 -11 0 -10 9
-20 20 -23 30 -8 26 -34 -5 -29 -18 3 -25 0 -25 -11 0 -9 -3 -14 -6 -10 -3 3
-17 2 -30 -3 -16 -6 -24 -6 -24 1 0 6 -5 7 -11 3 -6 -3 -15 -1 -19 6 -10 17
-44 4 -34 -12 6 -10 4 -11 -7 0 -24 22 -40 15 -33 -15 7 -27 7 -27 -11 -9 -18
17 -19 17 -49 -15 -23 -24 -31 -43 -32 -70 0 -41 -26 -74 -50 -65 -8 3 -17 -1
-19 -9 -16 -51 -16 -50 -25 -35 -12 20 -24 5 -12 -16 6 -11 11 -13 16 -5 12
19 28 12 21 -10 -5 -15 -4 -19 4 -15 6 4 11 2 11 -3 0 -6 -3 -11 -8 -11 -4 0
-13 -13 -20 -30 -12 -25 -11 -33 2 -52 9 -12 16 -32 16 -43 1 -26 42 -72 75
-85 24 -9 36 -40 15 -40 -5 0 -10 6 -10 14 0 7 -10 16 -22 19 -13 2 -31 8 -41
12 -12 5 -17 3 -15 -6 2 -8 7 -17 12 -20 5 -4 9 -24 10 -45 1 -35 -2 -39 -23
-39 -15 0 -28 -9 -34 -23 -6 -12 -19 -22 -30 -22 -11 0 -28 -6 -36 -14 -25
-22 -56 -24 -55 -4 1 10 -2 15 -7 12 -10 -6 -29 37 -22 49 3 5 -5 7 -18 5 -21
-3 -24 -9 -24 -42 0 -27 -6 -42 -18 -50 -10 -6 -41 -32 -68 -58 -28 -27 -52
-48 -54 -48 -3 0 0 11 7 25 6 13 14 22 19 19 4 -2 12 3 18 13 12 23 -4 53 -29
53 -12 0 -20 7 -20 16 0 13 -3 14 -15 4 -8 -6 -19 -9 -24 -5 -6 3 -20 -4 -31
-15 -26 -26 -54 -22 -58 8 -4 27 -19 28 -40 2 -17 -19 -17 -19 -62 2 -25 11
-49 27 -53 35 -7 11 -12 11 -22 3 -12 -10 -11 -17 5 -47 18 -33 18 -63 0 -63
-5 0 -16 -7 -25 -16 -15 -15 -15 -14 -9 11 8 32 -6 45 -50 45 -23 0 -27 -3
-23 -20 7 -26 -9 -26 -24 1 -10 19 -13 20 -26 6 -14 -13 -17 -13 -34 1 -10 9
-19 23 -19 32 0 10 -3 11 -8 3 -11 -17 -65 -20 -78 -4 -9 11 -13 11 -26 -3
-25 -24 -68 -39 -68 -23 0 7 5 18 11 24 20 20 2 62 -29 68 -31 7 -91 24 -110
32 -11 4 -12 1 -3 -15 16 -29 14 -40 -9 -52 -14 -8 -26 -8 -40 0 -27 14 -25
27 3 26 17 -1 23 5 25 27 3 23 0 28 -16 25 -10 -2 -26 3 -35 10 -18 15 -37 8
-37 -14 0 -29 -38 -13 -64 27 -23 33 -32 40 -49 34 -35 -11 -177 -15 -177 -5
0 36 -306 38 -318 3 -3 -11 111 -73 135 -73 4 0 14 -9 21 -20 7 -11 18 -20 26
-20 7 0 42 -15 76 -32 45 -23 65 -29 67 -20 3 6 19 12 36 12 25 0 36 -7 50
-31 9 -17 26 -33 37 -36 11 -3 20 -10 20 -15 0 -5 5 -6 10 -3 6 4 7 12 4 18
-4 7 5 1 19 -12 23 -21 30 -23 53 -13 31 15 47 7 39 -19 -8 -23 2 -59 16 -59
6 0 7 5 4 10 -3 6 -2 10 3 10 6 0 12 -7 16 -15 3 -9 0 -15 -9 -15 -9 0 -12 -6
-9 -15 9 -22 -13 -18 -38 7 -15 15 -23 18 -26 9 -2 -7 23 -39 56 -72 64 -64
69 -74 14 -33 -28 22 -36 24 -43 13 -16 -25 -9 -62 20 -108 16 -25 32 -57 36
-71 6 -22 4 -21 -14 7 -11 17 -30 51 -42 75 -30 61 -69 100 -85 87 -7 -6 -10
-17 -7 -25 6 -16 -12 -20 -22 -5 -3 6 -25 23 -48 39 -23 16 -60 41 -81 55 -44
31 -66 35 -44 10 8 -10 22 -30 31 -44 15 -26 15 -27 -3 -22 -26 7 -30 -34 -7
-74 17 -29 17 -34 4 -39 -21 -8 -36 2 -101 64 -57 54 -146 115 -192 132 -25
10 -26 9 -13 -6 8 -10 52 -41 98 -71 46 -30 81 -57 78 -60 -7 -6 -93 43 -192
110 -28 20 -29 20 -15 1 23 -29 32 -38 68 -63 50 -35 31 -36 -39 -1 -35 17
-57 25 -49 18 48 -42 41 -48 -18 -17 -34 17 -64 30 -67 28 -2 -3 6 -16 19 -30
13 -14 29 -36 36 -48 l12 -23 -26 18 c-14 11 -26 25 -26 32 0 7 -5 10 -10 7
-6 -4 -7 -12 -3 -18 8 -15 -39 24 -50 41 -5 7 -12 10 -18 7 -5 -4 -9 -2 -9 3
0 15 26 22 37 11 7 -7 12 -3 16 10 3 12 1 19 -4 15 -5 -3 -31 13 -57 35 -27
23 -58 41 -69 41 -30 0 -33 26 -11 85 10 28 18 60 18 72 0 12 7 37 15 55 8 18
21 59 30 90 15 57 51 98 74 84 5 -4 12 -2 16 4 3 5 17 10 31 10 13 0 24 4 24
9 0 12 -26 21 -59 21 -34 0 -40 6 -34 31 5 18 14 19 127 17 132 -2 266 9 266
22 0 5 -8 6 -19 3 -10 -3 -22 0 -25 6 -4 6 -26 12 -49 13 -23 0 34 5 127 9 97
4 173 12 179 18 6 6 19 11 29 11 10 0 26 8 37 19 20 20 45 26 154 41 38 5 83
14 100 19 31 10 143 20 297 26 98 4 97 4 80 15 -8 6 -27 7 -43 4 -16 -3 -27
-1 -27 5 0 6 -10 11 -22 11 -12 0 -19 3 -15 6 3 3 47 8 99 11 87 4 132 8 151
11 4 1 7 7 7 13 0 8 -11 9 -32 5 -31 -5 -32 -5 -14 9 11 8 30 15 41 15 30 0
88 21 80 29 -10 9 -144 7 -138 -2 3 -5 -15 -6 -39 -3 -23 3 -54 5 -68 6 -23 1
-23 2 -5 9 11 5 45 12 75 16 65 9 119 33 100 45 -7 4 -54 6 -104 3 -51 -3 -87
-1 -83 3 5 5 18 9 30 10 12 0 44 4 72 8 48 8 49 8 25 21 l-25 14 30 -1 c44 -1
96 12 89 23 -3 5 -38 9 -77 8 -51 -1 -65 -3 -47 -9 25 -8 25 -8 2 -9 -15 -1
-21 -5 -16 -13 4 -6 3 -8 -3 -5 -6 4 -44 9 -84 13 -96 8 -101 14 -11 14 55 0
70 3 66 13 -6 17 37 37 81 37 63 0 72 12 24 30 l-44 18 84 8 c52 6 86 14 89
22 2 6 -3 12 -12 12 -9 0 -16 4 -16 9 0 5 21 7 48 4 26 -3 44 -1 39 3 -4 4
-15 9 -25 10 -9 1 -35 5 -57 8 -22 4 -69 9 -105 11 -36 3 -85 7 -110 10 -25 2
-148 5 -275 6 -126 1 -282 6 -345 11 -63 5 -144 11 -180 13 -36 2 -66 4 -68 4
-1 1 2 9 7 19 8 15 23 17 133 14 172 -5 178 -4 203 12 31 20 89 21 158 2 74
-20 117 -20 132 0 9 13 27 17 74 16 40 0 66 5 75 14 8 8 24 14 36 14 12 0 36
10 53 22 21 15 32 18 35 10 4 -14 44 -16 58 -2 5 5 24 11 42 13 18 2 35 7 39
10 3 4 19 7 35 7 41 0 71 18 63 38 -3 9 -3 13 1 10 4 -4 15 -3 25 2 14 8 19 6
24 -10 8 -26 31 -26 47 0 9 13 24 20 45 20 29 0 33 3 33 25 0 14 5 25 11 25 5
0 7 5 4 10 -11 18 5 32 22 19 20 -17 34 6 27 44 -3 18 -1 26 5 22 6 -3 16 3
23 15 7 11 21 20 30 20 20 0 26 44 8 55 -6 3 -10 14 -9 23 0 11 3 12 6 5 2 -7
9 -13 14 -13 6 0 8 4 5 9 -4 5 0 11 6 14 10 4 11 7 1 18 -20 20 -16 29 12 29
15 0 25 5 24 13 -1 6 -1 22 0 35 1 20 4 21 22 11 12 -6 19 -7 15 -1 -3 6 -3
18 0 27 5 13 8 14 15 3 7 -10 9 -10 9 3 0 10 8 15 23 14 12 -2 21 -8 19 -15
-2 -8 3 -10 13 -6 9 3 25 1 35 -4 15 -8 18 -7 14 3 -3 9 3 17 16 20 12 3 19
10 15 16 -4 8 2 8 19 1 14 -5 26 -7 26 -4 0 4 6 1 14 -5 10 -8 16 -9 21 -1 9
15 28 12 22 -3 -3 -9 3 -13 17 -13 15 1 21 -5 20 -21 0 -12 2 -22 5 -21 25 2
51 -4 47 -11 -3 -5 13 -15 36 -23 25 -8 42 -19 40 -27 -1 -7 3 -11 10 -8 7 2
12 11 12 20 -1 9 4 13 12 10 8 -3 14 -9 14 -14 0 -5 5 -9 11 -9 5 0 7 5 4 10
-3 6 1 10 9 10 8 0 18 -5 22 -11 4 -7 9 -8 17 0 7 7 6 15 -3 26 -19 23 -4 18
21 -7 12 -13 19 -17 15 -10 -4 6 -3 12 1 12 5 0 15 -6 22 -12 8 -7 11 -8 8 -3
-3 6 -2 17 4 25 7 12 9 10 9 -9 0 -18 4 -22 20 -18 11 3 18 1 15 -3 -3 -5 -1
-11 4 -14 16 -10 25 16 10 28 -14 11 -25 46 -14 46 9 0 65 -60 65 -69 0 -5 8
-8 18 -6 9 2 23 4 31 4 11 1 10 6 -4 21 -18 19 -18 20 -1 14 10 -4 22 -17 27
-30 5 -15 17 -24 31 -25 13 0 17 -3 10 -6 -6 -2 -10 -9 -6 -14 3 -5 0 -9 -6
-9 -6 0 -8 -5 -5 -10 4 -6 11 -8 16 -5 5 4 9 2 9 -3 0 -5 9 -12 21 -15 20 -5
20 -5 4 13 -16 18 -16 18 7 13 22 -5 22 -5 4 9 -13 10 -15 17 -8 22 7 4 12 2
12 -4 0 -6 5 -8 11 -5 6 4 8 13 5 21 -3 8 -1 14 4 14 6 0 10 -5 10 -11 0 -5 4
-7 10 -4 6 3 7 -1 4 -9 -3 -9 -10 -16 -16 -16 -5 0 -6 -5 -3 -10 4 -6 10 -8
15 -5 4 3 13 -2 20 -10 6 -8 25 -13 41 -12 23 2 29 6 25 20 -2 10 1 17 10 17
13 0 19 -13 15 -34 -1 -5 5 -4 13 3 11 9 13 19 5 37 -5 14 -5 23 0 20 5 -3 12
9 16 27 12 49 12 51 3 64 -6 7 -4 14 3 19 7 4 9 3 5 -4 -3 -6 -2 -13 4 -17 6
-4 7 -11 4 -17 -4 -6 -1 -9 7 -6 8 3 13 13 11 22 -2 11 9 22 32 31 44 19 38
54 -7 46 -5 -1 -5 3 -2 9 4 6 13 9 21 6 8 -3 14 1 14 8 0 8 7 17 15 20 9 3 22
20 29 38 12 28 12 34 -3 46 -9 7 -10 11 -3 7 6 -3 15 1 18 9 3 9 10 13 15 10
5 -3 8 0 7 8 -2 7 5 12 15 12 9 -1 17 4 17 12 0 9 -6 11 -17 7 -16 -6 -16 -5
-4 10 14 18 71 24 71 7 0 -5 9 -10 20 -10 11 0 20 -5 20 -11 0 -5 5 -7 12 -3
8 5 6 11 -5 19 -24 18 -21 24 11 21 20 -2 28 -9 30 -27 2 -19 1 -21 -7 -9 -6
8 -11 10 -11 4 0 -6 8 -18 18 -27 14 -13 21 -14 30 -5 7 7 12 8 12 2 0 -14 44
-12 62 3 8 7 19 9 23 5 5 -4 5 -2 1 5 -4 7 -12 10 -19 7 -8 -3 -24 0 -38 5
l-24 10 28 0 c22 1 27 6 27 25 0 13 -6 27 -12 29 -9 4 -8 6 2 6 18 1 43 -35
35 -49 -4 -6 8 -10 25 -10 24 0 33 5 37 21 4 12 11 18 20 15 11 -4 13 0 9 17
-3 12 -3 16 0 10 7 -16 40 -17 50 -1 4 7 3 8 -5 4 -7 -5 -10 -2 -9 5 2 7 -3
14 -9 15 -7 1 -16 2 -20 3 -4 0 -2 6 4 12 8 8 17 8 33 -1 12 -6 19 -14 16 -17
-3 -3 -1 -14 4 -23 11 -21 50 -16 50 6 0 8 5 14 11 14 6 0 9 -7 5 -15 -4 -12
-2 -13 12 -7 9 5 23 8 30 6 7 -1 8 0 2 3 -7 3 -6 11 1 24 9 17 12 18 25 4 16
-16 39 -11 29 6 -4 5 -1 9 5 9 7 0 10 -7 6 -15 -6 -17 19 -21 29 -5 4 6 10 8
15 5 5 -3 11 -1 15 5 4 6 11 8 16 5 5 -4 9 -2 9 3 0 12 101 3 118 -10z m-753
-26 c0 -20 -18 -18 -21 1 -1 10 3 16 9 14 7 -2 12 -9 12 -15z m285 -3 c0 -5
-4 -9 -10 -9 -5 0 -10 7 -10 16 0 8 5 12 10 9 6 -3 10 -10 10 -16z m125 11 c3
-6 -1 -7 -9 -4 -18 7 -21 14 -7 14 6 0 13 -4 16 -10z m-261 -42 c34 -31 11
-29 -25 3 -21 19 -27 27 -14 23 11 -5 29 -16 39 -26z m-18 -47 c-12 -19 -24
-12 -19 10 4 13 9 17 15 11 6 -6 7 -15 4 -21z m1898 -10 c-2 -3 -12 3 -22 13
-16 17 -16 18 5 5 12 -7 20 -15 17 -18z m-4410 -2 c-3 -6 2 -21 11 -35 9 -14
14 -36 11 -47 -9 -38 18 -61 71 -62 43 0 47 -2 55 -30 13 -50 3 -64 -43 -59
-34 4 -40 2 -51 -21 -11 -25 -25 -31 -77 -37 -32 -4 -36 -19 -11 -45 12 -14
16 -24 9 -28 -6 -4 -8 -13 -5 -21 3 -8 0 -11 -10 -7 -7 3 -14 1 -14 -5 0 -6
-9 -8 -20 -5 -10 3 -19 8 -19 12 1 3 -2 16 -6 28 -5 17 -11 20 -24 14 -18 -10
-55 -14 -118 -12 -42 1 -42 1 -32 28 6 15 19 36 30 46 10 10 19 25 19 33 0 10
6 14 14 11 10 -4 13 -1 10 8 -6 13 31 76 48 83 4 2 8 9 8 16 0 6 9 18 20 26
11 8 20 18 20 23 0 5 6 14 13 22 6 7 25 29 42 48 16 19 35 33 42 30 7 -3 10
-9 7 -14z m2293 5 c-3 -3 -12 -4 -19 -1 -8 3 -5 6 6 6 11 1 17 -2 13 -5z
m2228 -34 c3 -6 -1 -7 -9 -4 -18 7 -21 14 -7 14 6 0 13 -4 16 -10z m-4015 -55
c0 -22 -29 -75 -40 -75 -6 0 -10 -7 -10 -15 0 -8 -6 -15 -12 -15 -8 0 -9 -3
-3 -8 6 -4 12 -18 13 -31 5 -35 21 -46 75 -49 27 -1 55 -9 64 -17 8 -8 25 -18
39 -21 25 -6 32 -28 13 -39 -6 -4 -9 -25 -8 -46 2 -24 -3 -46 -12 -57 -8 -10
-14 -22 -12 -27 1 -6 -25 -11 -59 -12 -34 -1 -65 -7 -68 -14 -5 -7 -10 -7 -14
-1 -3 5 -35 7 -75 4 l-69 -5 6 48 c3 33 2 46 -6 41 -18 -11 -21 7 -6 49 18 52
17 57 -3 51 -10 -3 -26 1 -37 9 -14 11 -17 24 -15 64 2 28 0 53 -6 55 -5 2 -1
7 10 11 32 12 65 47 65 67 0 16 5 18 34 13 20 -4 36 -2 40 4 4 5 13 8 20 5 7
-3 19 2 26 11 16 20 50 20 50 0z m1695 5 c-3 -5 -12 -10 -18 -10 -7 0 -6 4 3
10 19 12 23 12 15 0z m2455 -20 c0 -5 -2 -10 -4 -10 -3 0 -8 5 -11 10 -3 6 -1
10 4 10 6 0 11 -4 11 -10z m-2813 -126 c-3 -3 -12 -4 -19 -1 -8 3 -5 6 6 6 11
1 17 -2 13 -5z m-197 -38 c0 -10 -30 0 -34 11 -4 11 -1 11 14 3 11 -6 20 -12
20 -14z m135 14 c-3 -5 -1 -10 4 -10 6 0 11 -4 11 -9 0 -4 -11 -6 -24 -4 -20
4 -22 8 -13 19 14 15 31 19 22 4z m290 -10 c3 -5 1 -10 -4 -10 -6 0 -11 5 -11
10 0 6 2 10 4 10 3 0 8 -4 11 -10z m3214 -159 c9 -6 6 -8 -13 -8 -14 0 -23 3
-20 8 7 11 15 11 33 0z m-5191 -54 c2 -15 -2 -27 -8 -27 -6 0 -8 5 -5 10 3 6
1 10 -4 10 -6 0 -11 7 -11 16 0 8 -4 12 -10 9 -5 -3 -10 -1 -10 4 0 6 10 9 23
7 15 -2 23 -11 25 -29z m3210 -56 c3 -8 -1 -12 -9 -9 -7 2 -15 10 -17 17 -3 8
1 12 9 9 7 -2 15 -10 17 -17z m-2468 -1 c0 -5 -2 -10 -4 -10 -3 0 -8 5 -11 10
-3 6 -1 10 4 10 6 0 11 -4 11 -10z m4624 -109 c3 -5 -1 -11 -9 -14 -9 -4 -12
-1 -8 9 6 16 10 17 17 5z m-4920 -17 c-7 -3 -10 -13 -7 -23 5 -20 -22 -37 -32
-21 -4 6 -1 10 5 10 7 0 10 6 7 14 -7 17 1 26 22 25 9 0 11 -3 5 -5z m36 -24
c0 -5 -4 -10 -10 -10 -5 0 -10 5 -10 10 0 6 5 10 10 10 6 0 10 -4 10 -10z
m-1050 -150 c0 -5 -4 -10 -9 -10 -6 0 -13 5 -16 10 -3 6 1 10 9 10 9 0 16 -4
16 -10z m3257 -86 c-9 -9 -28 6 -21 18 4 6 10 6 17 -1 6 -6 8 -13 4 -17z
m-2187 -12 c0 -5 -14 -9 -30 -10 -17 0 -28 4 -25 9 8 11 55 12 55 1z m27 -28
c-3 -3 -12 -4 -19 -1 -8 3 -5 6 6 6 11 1 17 -2 13 -5z m2034 -67 c-8 -8 -11
-7 -11 4 0 20 13 34 18 19 3 -7 -1 -17 -7 -23z m-2271 -21 c0 -2 -9 -6 -20 -9
-11 -3 -18 -1 -14 4 5 9 34 13 34 5z m1481 -71 c-1 -15 -24 -12 -29 3 -3 9 2
13 12 10 10 -1 17 -7 17 -13z m599 -45 c0 -5 -4 -10 -10 -10 -5 0 -10 5 -10
10 0 6 5 10 10 10 6 0 10 -4 10 -10z m-2120 -10 c11 -7 5 -8 -20 -4 -43 8 -51
14 -19 14 13 0 31 -5 39 -10z m-24 -69 c-3 -4 -33 -11 -65 -15 -33 -4 -63 -11
-66 -16 -4 -6 -16 -10 -28 -10 -20 1 -21 2 -5 14 13 10 15 15 6 24 -9 9 9 12
76 12 48 0 85 -4 82 -9z m-236 -51 c0 -5 -10 -10 -22 -9 -22 0 -22 1 -3 9 11
5 21 9 23 9 1 1 2 -3 2 -9z m45 0 c3 -5 -3 -10 -14 -10 -12 0 -21 5 -21 10 0
6 6 10 14 10 8 0 18 -4 21 -10z m7115 -27 c0 -15 -29 -30 -41 -22 -11 7 -10 9
4 9 10 0 16 4 13 8 -3 5 1 9 9 9 8 0 15 -2 15 -4z m-2180 -33 c0 -5 -2 -10 -4
-10 -3 0 -8 5 -11 10 -3 6 -1 10 4 10 6 0 11 -4 11 -10z m1625 -91 c14 -18 24
-34 21 -36 -6 -6 -106 89 -106 100 0 13 55 -29 85 -64z m-5475 37 c0 -2 -9 -6
-20 -9 -11 -3 -18 -1 -14 4 5 9 34 13 34 5z m6703 -32 c41 -21 83 -54 69 -54
-6 0 -14 5 -17 10 -4 6 -27 21 -53 35 -26 13 -43 24 -39 25 4 0 22 -7 40 -16z
m173 -31 c17 3 28 -1 34 -14 15 -26 13 -28 -17 -19 -74 23 -105 38 -92 42 8 3
22 1 33 -4 10 -6 29 -8 42 -5z m-571 -3 c3 -5 2 -10 -4 -10 -5 0 -13 5 -16 10
-3 6 -2 10 4 10 5 0 13 -4 16 -10z m-1851 -77 c37 -42 97 -119 110 -143 8 -15
1 -8 -106 113 -61 69 -66 96 -4 30z m1016 27 c0 -5 -2 -10 -4 -10 -3 0 -8 5
-11 10 -3 6 -1 10 4 10 6 0 11 -4 11 -10z m1136 -28 c-6 -5 -36 23 -36 34 0 4
9 -1 20 -11 11 -10 18 -20 16 -23z m124 -17 c0 -8 -8 -11 -20 -8 -23 6 -22 5
-14 27 5 13 9 14 20 5 8 -6 14 -17 14 -24z m-1134 -12 c-7 -7 -26 7 -26 19 0
6 6 6 15 -2 9 -7 13 -15 11 -17z m1049 -3 c10 -11 16 -20 13 -20 -3 0 -13 9
-23 20 -10 11 -16 20 -13 20 3 0 13 -9 23 -20z m-1672 -5 c7 -17 -8 -29 -29
-21 -12 5 -13 8 -2 20 17 19 24 20 31 1z m572 -36 c-10 -15 -25 -10 -19 6 4 8
10 12 15 9 5 -3 7 -10 4 -15z m220 -52 c20 -23 40 -46 44 -52 5 -5 28 -28 52
-49 61 -54 65 -63 26 -58 -37 5 -99 65 -161 155 -22 31 -43 57 -48 57 -4 0 -8
4 -8 9 0 18 59 -20 95 -62z m676 -57 c131 -142 121 -150 -14 -13 -67 68 -124
128 -126 135 -8 24 59 -35 140 -122z m44 102 c-3 -3 -11 0 -18 7 -9 10 -8 11
6 5 10 -3 15 -9 12 -12z m-1030 -42 c18 -19 17 -20 -3 -20 -15 0 -22 6 -22 20
0 11 2 20 3 20 2 0 12 -9 22 -20z m-805 -6 c0 -8 -4 -12 -10 -9 -5 3 -10 10
-10 16 0 5 5 9 10 9 6 0 10 -7 10 -16z m2122 -19 c6 -28 1 -30 -24 -11 -19 14
-25 32 -8 21 6 -3 10 -1 10 4 0 22 18 10 22 -14z m-1442 -65 c18 -28 30 -54
26 -57 -3 -4 -8 -4 -10 -2 -7 9 -55 109 -52 109 2 0 18 -23 36 -50z m-460 19
c0 -6 -4 -7 -10 -4 -5 3 -10 11 -10 16 0 6 5 7 10 4 6 -3 10 -11 10 -16z
m1050 11 c0 -5 -2 -10 -4 -10 -3 0 -8 5 -11 10 -3 6 -1 10 4 10 6 0 11 -4 11
-10z m410 -40 c-8 -5 -17 -7 -19 -4 -3 3 1 9 9 14 8 5 17 7 19 4 3 -3 -1 -9
-9 -14z m-7852 -19 c3 -8 -1 -12 -9 -9 -7 2 -15 10 -17 17 -3 8 1 12 9 9 7 -2
15 -10 17 -17z m4108 -35 c119 -12 373 -95 445 -147 15 -10 30 -19 33 -19 13
0 111 -79 153 -122 70 -73 149 -164 211 -243 5 -6 13 -24 19 -40 6 -17 22 -48
37 -69 14 -21 26 -45 26 -53 0 -8 9 -27 19 -42 11 -14 27 -53 36 -86 10 -33
21 -64 26 -69 5 -6 9 -22 9 -36 0 -15 3 -30 8 -34 4 -4 8 -17 8 -29 1 -12 5
-38 9 -57 16 -66 9 -295 -9 -363 -60 -213 -134 -370 -223 -470 -26 -29 -33
-46 -33 -77 0 -40 0 -40 40 -40 32 0 43 -5 62 -31 20 -27 27 -30 58 -24 19 4
43 16 52 28 l17 22 10 -27 c9 -25 14 -27 43 -21 18 3 37 12 41 20 4 7 15 13
23 13 8 0 17 7 20 15 4 8 10 13 14 10 10 -6 40 22 40 38 0 7 16 13 37 14 20 1
39 7 43 14 4 6 12 9 17 6 5 -3 15 -2 23 4 13 7 13 9 1 9 -11 0 -10 4 3 19 10
11 15 26 11 33 -4 7 7 -2 23 -20 30 -32 31 -33 42 -12 l11 21 19 -23 c11 -13
19 -17 20 -10 0 6 7 12 16 12 11 0 14 -6 9 -20 -4 -11 -2 -20 4 -20 6 0 11 9
11 20 0 11 5 20 10 20 6 0 10 -7 10 -15 0 -13 4 -12 21 4 14 13 19 26 15 39
-5 14 -1 21 14 25 11 3 24 15 28 27 4 11 19 27 32 33 21 11 27 10 44 -7 20
-20 20 -19 35 16 17 37 41 41 41 7 0 -24 5 -24 40 1 21 15 29 17 33 8 2 -7 7
6 11 29 4 23 4 48 0 55 -6 10 -5 10 7 1 15 -12 41 -3 38 13 -4 23 3 32 27 32
14 0 22 -3 18 -7 -18 -12 -13 -47 10 -74 l23 -28 -4 28 c-6 35 22 67 33 39 10
-26 25 -18 18 9 -3 14 -2 25 4 25 5 0 12 12 15 28 3 15 16 33 28 40 19 12 21
12 16 -2 -3 -8 -2 -18 3 -21 6 -4 10 -10 10 -16 0 -5 -9 -4 -20 3 -27 17 -38
2 -14 -20 18 -18 20 -18 41 7 13 14 18 28 13 29 -6 2 -10 12 -10 23 0 12 -7
19 -18 19 -27 0 -44 21 -31 37 20 23 49 15 60 -17 6 -16 17 -30 25 -30 8 0 14
-6 15 -12 1 -25 8 -50 14 -56 9 -9 36 28 29 39 -3 5 -1 9 5 9 5 0 12 -6 14
-12 3 -8 6 -6 6 5 1 12 -7 17 -29 17 -16 0 -30 5 -30 10 0 6 -8 10 -17 11 -13
0 -11 3 6 10 16 6 41 6 68 1 24 -6 43 -6 43 -1 0 5 -5 9 -11 9 -7 0 -18 8 -25
18 -11 14 -13 14 -14 2 0 -12 -4 -11 -15 4 -11 15 -17 16 -28 8 -8 -7 -17 -9
-21 -5 -11 12 48 31 62 20 8 -7 12 -5 12 6 0 9 13 30 30 47 16 16 27 36 24 44
-3 7 2 16 10 19 9 4 17 19 17 34 1 16 3 21 6 11 6 -25 33 -10 33 18 0 13 3 23
8 22 13 -4 53 23 47 33 -4 5 -2 9 4 9 5 0 13 -4 16 -10 9 -15 25 -12 25 5 0
18 45 49 62 42 8 -3 6 -6 -5 -6 -15 -1 -16 -4 -7 -21 6 -11 16 -18 23 -14 7 3
0 -5 -15 -18 -28 -25 -37 -48 -18 -48 5 0 19 14 32 30 12 17 27 30 32 30 6 0
5 -4 -2 -9 -20 -12 -10 -46 13 -46 16 0 20 6 18 27 -1 19 4 29 17 33 10 3 21
13 24 22 6 14 8 14 21 -3 13 -18 14 -18 20 -1 9 21 31 22 38 2 4 -9 -6 -23
-24 -36 -30 -21 -34 -44 -8 -44 8 0 20 -4 28 -9 9 -6 18 -3 26 8 7 9 19 14 29
10 12 -5 16 0 16 17 0 12 4 36 10 53 5 17 12 43 15 59 6 32 27 35 55 7 l20
-20 0 31 c0 24 3 29 13 22 6 -5 17 -9 23 -9 15 1 74 53 74 66 0 6 10 8 25 4
20 -5 25 -2 25 12 -1 11 -7 30 -15 44 -20 36 -19 39 18 30 40 -9 52 3 52 50 0
32 3 35 30 37 18 2 24 0 15 -5 -21 -10 -19 -54 5 -75 14 -11 15 -16 5 -14 -14
3 -8 -2 6 -6 11 -3 33 83 23 89 -29 18 18 80 69 90 19 4 32 2 32 -3 0 -10 42
-9 88 2 18 4 25 1 29 -15 3 -13 12 -20 22 -18 12 3 15 13 13 41 -3 42 17 59
43 37 18 -15 53 -1 98 39 27 24 27 24 43 5 11 -14 17 -16 21 -6 4 10 8 10 19
2 16 -14 37 -4 28 13 -4 7 -4 9 1 5 4 -4 16 -3 27 3 14 7 23 7 34 -2 11 -9 14
-9 14 1 0 7 9 2 20 -11 16 -20 19 -21 20 -6 0 9 4 17 9 17 14 0 23 -33 10 -40
-16 -10 -16 -15 0 -33 19 -23 67 -21 91 3 11 11 33 20 49 20 28 0 54 29 28 31
-9 0 -9 2 1 6 6 2 9 10 5 16 -5 9 -3 9 8 1 8 -6 29 -16 48 -23 27 -9 36 -9 43
1 5 9 8 6 8 -8 0 -12 6 -22 13 -21 38 1 44 -3 40 -30 -3 -18 -1 -24 4 -16 5 7
19 11 31 8 12 -2 24 1 28 6 4 6 11 6 20 -2 20 -17 26 -6 15 25 -11 28 -11 29
13 20 9 -3 16 -17 16 -31 0 -16 4 -22 13 -17 9 5 9 4 0 -6 -10 -11 -8 -17 9
-32 26 -22 35 -24 17 -2 -11 13 -11 15 2 14 26 -4 40 0 34 10 -3 6 1 7 9 4 9
-3 16 -1 16 6 0 7 8 9 20 5 13 -4 22 -1 25 8 3 7 16 13 28 12 12 -1 25 3 29 8
4 7 20 -2 39 -21 18 -18 28 -32 22 -32 -6 0 -14 -12 -18 -27 -3 -15 -14 -33
-23 -40 -11 -8 -12 -12 -4 -13 6 0 12 -4 12 -8 0 -5 -14 -7 -30 -4 -25 3 -29
1 -24 -12 4 -11 1 -16 -10 -16 -20 0 -56 -30 -56 -47 0 -8 -12 -13 -28 -13
-16 0 -32 -3 -36 -7 -4 -5 -11 -8 -14 -9 -4 0 -24 -4 -45 -8 -36 -8 -97 7 -97
24 0 4 -19 13 -42 20 -39 11 -76 44 -70 63 5 16 -25 5 -51 -19 -26 -24 -32
-25 -80 -18 -29 4 -55 7 -59 6 -5 -1 -8 1 -8 6 0 4 -11 8 -25 8 -25 2 -30 -7
-25 -50 1 -15 -3 -17 -24 -12 -19 5 -26 3 -26 -9 0 -15 -30 -19 -107 -15 -23
1 -40 -6 -58 -24 -14 -14 -30 -26 -35 -26 -6 0 -10 -4 -10 -10 0 -5 -9 -10
-19 -10 -11 0 -21 -4 -23 -8 -1 -4 -17 -18 -35 -30 -20 -14 -30 -28 -26 -37 7
-19 -14 -45 -32 -39 -16 6 -27 -53 -11 -60 23 -9 -19 -24 -56 -20 -25 3 -38 1
-38 -7 0 -8 -7 -6 -18 4 -22 20 -46 22 -61 4 -8 -10 -7 -17 2 -26 9 -10 6 -10
-15 -2 -29 11 -42 2 -32 -22 3 -9 -4 -25 -15 -36 -24 -24 -26 -46 -7 -80 19
-35 -1 -75 -39 -76 -5 0 -10 -5 -10 -12 0 -6 -3 -14 -7 -18 -4 -4 -4 -14 -1
-23 4 -10 2 -13 -5 -8 -8 5 -10 2 -6 -8 3 -9 1 -16 -5 -16 -6 0 -8 -6 -6 -12
7 -19 -11 -42 -25 -33 -9 6 -9 10 1 17 9 6 5 7 -12 2 -15 -3 -30 -1 -34 5 -3
6 -10 9 -15 6 -5 -3 -21 2 -35 11 -20 13 -29 14 -38 5 -18 -18 -24 -13 -24 18
0 33 -27 66 -48 57 -8 -3 -18 -20 -24 -38 -5 -18 -10 -25 -10 -16 -2 29 -25
26 -42 -6 -13 -25 -23 -31 -50 -32 -18 0 -34 -5 -36 -11 -3 -7 -11 -9 -19 -6
-8 3 -22 -1 -32 -9 -27 -24 -50 -28 -62 -12 -7 8 -17 14 -22 14 -14 0 -38 -27
-31 -34 4 -3 0 -6 -8 -6 -8 0 -20 5 -26 11 -12 12 -63 2 -63 -13 0 -5 -10 -6
-22 -3 -20 6 -21 5 -8 -8 21 -21 90 -32 91 -15 0 7 5 2 10 -11 11 -28 4 -40
-13 -23 -23 23 -101 12 -91 -13 3 -10 -2 -13 -17 -10 -26 5 -22 -15 6 -30 10
-5 19 -17 19 -25 0 -19 35 -26 46 -8 14 21 11 28 -11 28 -11 0 -20 7 -20 15 0
20 19 19 41 -1 13 -12 16 -22 9 -39 -7 -17 -5 -25 6 -29 8 -3 14 -10 14 -16 0
-6 -4 -8 -10 -5 -5 3 -10 0 -10 -8 0 -7 -12 -19 -26 -25 -16 -8 -22 -16 -17
-25 4 -6 8 -15 8 -19 0 -20 20 -5 23 17 2 15 8 23 14 19 7 -4 8 -2 4 4 -10 17
13 15 30 -3 9 -8 11 -15 5 -15 -6 0 -11 -8 -11 -18 0 -13 -7 -18 -22 -18 -14
1 -24 -6 -26 -16 -2 -12 3 -18 15 -18 15 0 19 -8 20 -41 2 -32 -1 -40 -12 -35
-16 6 -45 -18 -45 -37 0 -14 35 -47 49 -47 5 0 11 -7 15 -15 8 -23 -30 -19
-54 5 -11 11 -20 24 -20 29 0 18 -35 17 -70 -2 -46 -26 -51 -36 -32 -65 14
-21 14 -24 2 -20 -8 3 -22 2 -31 -3 -11 -6 -24 -2 -39 11 -26 22 -41 26 -38 9
2 -6 -2 -13 -8 -16 -7 -2 -10 5 -7 22 4 18 1 25 -11 25 -9 0 -16 -4 -16 -10 0
-5 -6 -10 -14 -10 -15 0 -32 -53 -21 -69 8 -15 -19 -63 -57 -102 -18 -18 -32
-36 -30 -41 4 -15 -14 -8 -32 13 -22 26 -39 13 -34 -27 2 -21 9 -30 25 -32 14
-2 20 -8 16 -17 -3 -9 5 -19 21 -26 31 -15 33 -25 5 -32 -33 -9 -13 -25 25
-22 33 3 34 2 25 -21 -5 -14 -14 -34 -19 -44 -14 -26 5 -74 25 -66 9 3 15 0
15 -9 0 -23 38 -18 45 6 4 11 9 18 12 15 3 -2 16 -1 29 4 32 12 77 -23 68 -53
-4 -12 -2 -17 4 -13 6 3 13 -2 15 -11 3 -10 4 -1 3 20 -2 22 -9 43 -17 47 -7
5 -10 12 -6 16 4 4 13 0 20 -10 7 -9 22 -18 33 -18 13 -1 20 -9 20 -22 -1 -15
4 -20 19 -18 59 8 98 1 111 -21 9 -17 12 -17 23 -3 19 22 30 20 41 -9 5 -14
15 -25 21 -25 6 0 9 -6 6 -14 -3 -8 7 -26 24 -40 32 -29 33 -29 19 9 -7 17 -7
32 0 43 5 9 10 13 10 9 0 -4 8 -3 19 2 28 15 34 0 10 -25 -23 -25 -20 -69 3
-46 23 23 30 12 24 -32 -7 -42 -6 -43 21 -44 48 -3 83 -7 83 -11 0 -2 -11 -12
-24 -22 -26 -21 -40 -65 -21 -72 28 -11 67 7 94 45 16 22 31 35 34 31 3 -5 2
-15 -4 -23 -5 -8 -9 -26 -9 -39 0 -20 2 -21 15 -11 13 10 15 9 15 -8 0 -12 5
-24 10 -27 12 -7 3 -51 -18 -82 -17 -27 -9 -55 13 -47 10 4 15 0 15 -10 0 -15
6 -17 50 -21 8 0 21 -4 28 -9 7 -4 19 -2 28 5 12 10 13 9 8 -7 -6 -16 -5 -17
7 -6 7 6 18 12 23 12 6 0 4 -5 -4 -10 -13 -8 -12 -10 3 -10 9 0 17 -5 17 -11
0 -7 7 -17 17 -24 11 -8 13 -14 5 -19 -7 -4 -12 -2 -12 4 0 8 -6 8 -20 0 -11
-6 -20 -8 -20 -5 0 4 -6 3 -12 -1 -7 -5 -30 -10 -52 -12 -22 -2 -45 -10 -51
-19 -11 -14 -12 -14 -18 1 -5 12 -11 14 -24 8 -10 -5 -27 -6 -38 -1 -11 4 -15
8 -9 8 13 1 11 78 -2 91 -11 11 -35 -6 -58 -42 -10 -15 -23 -25 -28 -22 -6 4
-5 10 3 15 33 20 -41 33 -99 17 -29 -8 -40 -6 -61 9 -31 23 -71 35 -71 21 0
-5 -4 -6 -10 -3 -5 3 -10 -2 -10 -11 0 -14 -3 -15 -12 -6 -8 8 -8 15 1 26 14
17 11 37 -8 52 -7 6 -43 10 -79 9 -44 -2 -60 1 -48 7 19 10 22 42 4 35 -18 -6
-68 31 -68 51 0 9 -7 25 -15 36 -13 18 -15 18 -49 -4 -20 -12 -43 -31 -51 -43
-8 -12 -15 -18 -15 -14 0 4 1 9 3 10 1 2 -4 11 -12 20 -19 23 -41 21 -41 -3 0
-17 -4 -19 -27 -14 -37 9 -53 24 -26 24 12 0 25 5 28 10 8 13 -11 13 -36 -1
-12 -6 -28 -7 -37 -3 -32 14 -66 13 -84 -3 -13 -12 -29 -14 -64 -9 -31 4 -52
2 -62 -6 -11 -10 -18 -7 -34 15 -11 15 -29 27 -42 27 -12 0 -33 10 -46 23 -14
12 -26 21 -27 20 -12 -12 -24 2 -21 25 2 22 -3 30 -29 42 -24 11 -32 23 -35
48 -4 28 -2 31 16 26 23 -8 47 -29 40 -36 -2 -3 2 -10 10 -17 11 -9 17 -8 29
4 14 14 19 13 49 -5 18 -11 28 -20 21 -20 -7 0 -10 -7 -7 -15 8 -20 17 -19 60
10 20 14 40 22 45 19 5 -3 9 2 9 10 0 20 19 21 26 1 6 -15 60 -11 78 6 16 14
0 20 -27 10 -22 -8 -24 -7 -20 10 4 13 -2 22 -18 28 -23 9 -22 10 9 10 34 1
53 24 35 42 -6 6 -35 13 -66 16 -51 5 -55 7 -44 24 7 12 15 15 21 9 17 -17 26
-11 26 20 0 21 -4 28 -14 24 -8 -3 -17 -1 -21 5 -3 6 0 11 8 11 11 0 12 6 3
35 -6 19 -14 35 -19 35 -4 0 -17 11 -29 25 -22 26 -91 51 -108 40 -6 -3 -10
-2 -10 3 0 5 -23 12 -50 16 -28 4 -48 11 -45 16 3 4 -1 11 -7 14 -7 2 -4 4 7
4 52 -3 63 2 58 23 -3 11 -17 26 -32 32 l-26 11 28 4 c15 2 27 9 27 17 0 18
-30 28 -46 14 -11 -9 -16 -5 -24 17 -6 16 -23 41 -37 56 -22 23 -29 25 -55 16
-25 -9 -31 -8 -45 11 -12 18 -23 21 -64 19 -35 -2 -48 -7 -44 -15 3 -7 8 -19
11 -27 3 -9 -2 -17 -15 -21 -17 -5 -19 -10 -10 -31 5 -14 7 -29 4 -34 -3 -5 1
-11 7 -13 8 -3 6 -6 -4 -6 -10 -1 -19 5 -19 12 -1 6 -2 19 -3 27 0 9 -9 14
-19 12 -12 -2 -21 4 -24 17 -3 12 -16 24 -32 27 -32 7 -41 11 -65 26 -15 11
-19 11 -23 0 -3 -6 -9 -10 -14 -6 -5 3 -23 3 -39 -1 -22 -5 -27 -10 -22 -23
13 -32 37 -59 67 -75 18 -10 23 -16 14 -17 -9 0 -32 10 -51 23 -18 13 -45 23
-58 22 -13 -1 -33 7 -45 18 l-20 19 23 -7 c16 -5 22 -2 22 9 0 24 -46 30 -109
16 -31 -8 -69 -15 -86 -17 -143 -16 -185 -23 -201 -31 -11 -5 -46 -15 -79 -22
-33 -6 -73 -17 -90 -25 -16 -7 -50 -16 -75 -20 -25 -3 -58 -11 -75 -16 -17 -5
-43 -5 -60 -1 -29 9 -29 9 28 28 33 10 57 24 55 29 -3 11 -216 8 -233 -4 -5
-3 -37 -7 -70 -7 -90 -2 -266 -23 -279 -33 -6 -4 -36 -11 -66 -14 -30 -4 -64
-8 -75 -9 -16 -3 -19 2 -17 24 3 27 -4 36 -35 43 -37 9 -90 31 -114 47 l-24
18 28 -10 c16 -6 44 -12 64 -14 19 -3 43 -12 52 -20 10 -9 22 -16 27 -16 5 0
22 -7 39 -16 54 -28 203 0 219 42 4 11 13 14 31 10 14 -4 25 -4 25 -2 0 2 2
11 5 19 5 11 -16 16 -102 27 -160 18 -268 54 -490 162 -13 6 -23 16 -23 21 0
11 -1 11 -96 84 -38 29 -87 77 -109 107 -21 30 -42 53 -45 51 -4 -2 -7 2 -7 9
0 7 -13 33 -30 57 -17 24 -43 63 -57 87 -15 23 -39 48 -54 54 -25 11 -80 48
-71 48 2 0 19 -4 37 -9 17 -5 32 -7 32 -3 0 4 -20 48 -45 97 -25 50 -47 107
-48 127 -1 20 -10 45 -20 56 -21 23 -22 42 -1 42 14 0 14 3 4 15 -11 13 -10
14 3 10 24 -10 29 12 6 28 -18 13 -19 16 -4 19 14 2 17 17 19 83 0 44 5 88 10
98 5 10 4 17 -2 17 -6 0 -23 5 -39 12 -15 6 -34 10 -40 9 -8 -1 -13 9 -12 26
0 19 3 23 7 13 8 -19 19 -19 52 0 14 7 27 11 29 9 2 -2 13 25 23 61 11 36 26
77 34 92 8 14 14 33 14 42 0 8 9 30 20 48 11 18 20 40 20 48 0 16 73 144 125
220 50 73 205 227 281 280 76 52 247 140 273 140 9 0 40 9 69 20 79 30 249 41
408 26z m-3759 -58 c-3 -7 -5 -2 -5 12 0 14 2 19 5 13 2 -7 2 -19 0 -25z m-47
1 c13 -9 12 -10 -2 -5 -11 3 -19 -2 -23 -15 -4 -10 -11 -19 -16 -19 -12 0 -11
7 1 31 12 22 19 23 40 8z m27 -25 c-3 -3 -12 -4 -19 -1 -8 3 -5 6 6 6 11 1 17
-2 13 -5z m6711 -49 c-3 -3 -9 2 -12 12 -6 14 -5 15 5 6 7 -7 10 -15 7 -18z
m-78 -45 c0 -5 -4 -10 -10 -10 -5 0 -10 5 -10 10 0 6 5 10 10 10 6 0 10 -4 10
-10z m233 -45 c-6 -18 -19 -19 -29 -4 -7 12 15 31 28 23 4 -3 5 -11 1 -19z
m-283 -31 c0 -16 -16 -19 -25 -4 -8 13 4 32 16 25 5 -4 9 -13 9 -21z m660 -16
c0 -6 -7 -5 -15 2 -8 7 -15 17 -15 22 0 6 7 5 15 -2 8 -7 15 -17 15 -22z
m-8310 2 c0 -5 9 -10 20 -10 13 0 20 -7 20 -20 0 -11 12 -27 28 -37 99 -63
197 -142 188 -151 -5 -4 -71 31 -91 48 -11 10 -36 26 -55 36 -96 51 -152 107
-135 134 8 13 25 13 25 0z m1086 -57 c7 -10 14 -29 14 -42 0 -23 -1 -23 -19
-7 -21 19 -34 66 -18 66 5 0 16 -8 23 -17z m6514 -33 c0 -5 -2 -10 -4 -10 -3
0 -8 5 -11 10 -3 6 -1 10 4 10 6 0 11 -4 11 -10z m1034 -12 c-5 -8 -2 -9 9 -5
10 3 17 3 17 -2 0 -13 -11 -20 -26 -14 -16 6 -19 33 -3 33 5 0 7 -5 3 -12z
m-7580 -80 c15 -27 10 -24 -27 17 -25 28 -46 54 -47 59 0 16 54 -40 74 -76z
m-294 7 c14 -19 14 -19 -2 -6 -10 7 -18 18 -18 24 0 6 1 8 3 6 1 -2 9 -13 17
-24z m-296 -15 c18 -10 48 -38 69 -60 47 -53 52 -61 31 -53 -12 4 -15 3 -10
-5 5 -8 0 -12 -13 -12 -12 0 -21 4 -21 10 0 5 -15 27 -33 47 -38 44 -70 93
-61 93 4 0 21 -9 38 -20z m7243 -2 c-3 -8 -6 -5 -6 6 -1 11 2 17 5 13 3 -3 4
-12 1 -19z m1013 -13 c11 -13 10 -14 -4 -9 -9 3 -16 10 -16 15 0 13 6 11 20
-6z m350 5 c0 -5 -4 -10 -10 -10 -5 0 -10 5 -10 10 0 6 5 10 10 10 6 0 10 -4
10 -10z m-9077 -72 c-2 -5 3 -8 11 -8 9 0 16 -7 16 -17 0 -15 -1 -15 -18 0
-10 10 -23 17 -28 17 -5 0 -18 13 -27 30 l-18 30 34 -23 c19 -12 33 -25 30
-29z m7391 37 c-4 -8 -8 -15 -10 -15 -2 0 -4 7 -4 15 0 8 4 15 10 15 5 0 7 -7
4 -15z m392 -33 c1 -7 0 -8 -3 -2 -2 5 -9 8 -14 4 -5 -3 -9 0 -9 6 0 15 23 7
26 -8z m-6928 -17 c-3 -3 -9 2 -12 12 -6 14 -5 15 5 6 7 -7 10 -15 7 -18z
m-128 -14 c0 -25 -11 -33 -26 -20 -10 8 -11 16 -3 30 12 22 29 16 29 -10z
m160 -1 c6 -11 8 -20 6 -20 -3 0 -10 9 -16 20 -6 11 -8 20 -6 20 3 0 10 -9 16
-20z m7413 -67 c-3 -7 -9 -10 -14 -7 -5 3 -9 0 -9 -5 0 -6 -7 -11 -15 -11 -19
0 -19 6 2 34 13 17 20 20 29 12 6 -6 9 -17 7 -23z m45 19 c6 -18 -15 -14 -22
4 -4 10 -1 14 6 12 6 -2 14 -10 16 -16z m793 -5 c-10 -9 -11 -8 -5 6 3 10 9
15 12 12 3 -3 0 -11 -7 -18z m-8206 -27 c-3 -4 1 -23 9 -41 21 -53 7 -67 -21
-20 -25 43 -24 85 2 74 8 -3 13 -9 10 -13z m8161 -56 c-19 -13 -46 -19 -46 -9
0 8 55 34 60 28 3 -2 -4 -11 -14 -19z m-1116 -9 c0 -8 -4 -15 -9 -15 -13 0
-22 16 -14 24 11 11 23 6 23 -9z m-7145 -5 c3 -5 -1 -10 -10 -10 -9 0 -13 5
-10 10 3 6 8 10 10 10 2 0 7 -4 10 -10z m6560 -11 c-10 -15 -25 -10 -19 6 4 8
10 12 15 9 5 -3 7 -10 4 -15z m940 -1 c5 -4 0 -6 -12 -6 -13 1 -19 7 -16 15 3
8 8 10 12 6 3 -4 10 -11 16 -15z m-7645 -39 c0 -11 -4 -19 -9 -19 -10 0 -21
24 -21 47 0 13 3 13 15 3 8 -7 15 -21 15 -31z m330 20 c0 -6 -4 -7 -10 -4 -5
3 -10 11 -10 16 0 6 5 7 10 4 6 -3 10 -11 10 -16z m8195 -9 c3 -6 -1 -7 -9 -4
-18 7 -21 14 -7 14 6 0 13 -4 16 -10z m-8705 -30 c9 -16 8 -18 -5 -14 -10 4
-15 0 -15 -10 0 -20 -19 -21 -26 -1 -15 39 26 62 46 25z m6915 0 c3 -5 1 -10
-4 -10 -6 0 -11 5 -11 10 0 6 2 10 4 10 3 0 8 -4 11 -10z m525 -22 c0 6 5 12
12 12 6 0 3 -9 -7 -20 -19 -21 -65 -28 -65 -10 0 16 44 30 52 16 6 -8 8 -7 8
2z m-6550 -34 c0 -21 -4 -33 -10 -29 -5 3 -10 19 -10 36 0 16 5 29 10 29 6 0
10 -16 10 -36z m-252 3 c2 -12 -1 -15 -12 -11 -19 7 -22 38 -3 32 6 -3 13 -12
15 -21z m6732 3 c0 -5 -2 -10 -4 -10 -3 0 -8 5 -11 10 -3 6 -1 10 4 10 6 0 11
-4 11 -10z m1539 -29 c12 -8 12 -14 4 -33 l-12 -23 0 23 c-1 12 -5 22 -11 22
-5 0 -10 5 -10 10 0 12 10 13 29 1z m-8676 -26 c-3 -9 -8 -14 -10 -11 -3 3 -2
9 2 15 9 16 15 13 8 -4z m-689 -4 c8 -13 -20 -45 -32 -37 -17 11 -15 29 3 22
8 -3 15 -1 15 3 0 5 -6 12 -12 14 -8 3 -7 6 4 6 9 1 19 -3 22 -8z m7756 -1 c0
-5 -2 -10 -4 -10 -3 0 -8 5 -11 10 -3 6 -1 10 4 10 6 0 11 -4 11 -10z m1704
-22 c-10 -16 -22 -7 -17 13 4 15 8 17 14 8 4 -7 5 -17 3 -21z m-1621 -3 c4 -8
2 -17 -3 -20 -6 -4 -10 3 -10 14 0 25 6 27 13 6z m-23 -5 c0 -5 -2 -10 -4 -10
-3 0 -8 5 -11 10 -3 6 -1 10 4 10 6 0 11 -4 11 -10z m-4395 -60 c3 -5 -1 -10
-10 -10 -9 0 -13 5 -10 10 3 6 8 10 10 10 2 0 7 -4 10 -10z m-2795 -51 c0 -5
-7 -9 -15 -9 -9 0 -15 9 -15 21 0 18 2 19 15 9 8 -7 15 -16 15 -21z m410 5 c0
-8 -4 -14 -10 -14 -5 0 -6 8 -3 18 6 15 5 16 -13 2 -18 -14 -18 -14 -5 2 15
19 31 15 31 -8z m6320 12 c0 -8 -7 -16 -15 -20 -12 -4 -13 -2 -2 14 14 24 17
25 17 6z m20 -60 c0 -3 -4 -8 -10 -11 -5 -3 -10 -1 -10 4 0 6 5 11 10 11 6 0
10 -2 10 -4z m-5910 -42 c0 -16 -16 -19 -25 -4 -8 13 4 32 16 25 5 -4 9 -13 9
-21z m5883 -25 c-4 -16 -8 -17 -14 -7 -13 19 -11 28 5 28 9 0 12 -7 9 -21z
m-6403 -10 c0 -5 -4 -9 -10 -9 -5 0 -10 7 -10 16 0 8 5 12 10 9 6 -3 10 -10
10 -16z m6580 -57 c0 -7 -5 -10 -10 -7 -6 4 -8 11 -5 16 4 5 2 9 -4 9 -5 0
-11 -6 -14 -12 -2 -7 -8 -10 -12 -5 -5 4 0 14 11 21 20 15 34 6 34 -22z m745
19 c7 -12 -12 -24 -25 -16 -11 7 -4 25 10 25 5 0 11 -4 15 -9z m-7559 -98 c-5
-12 -10 -13 -18 -5 -8 8 -8 15 3 28 15 18 25 4 15 -23z m-367 -41 c0 -14 -2
-13 -9 3 -8 19 -9 19 -9 1 -1 -11 -4 -17 -7 -13 -4 3 -4 13 0 22 7 20 26 10
25 -13z m451 -10 c0 -10 -7 -19 -15 -19 -15 0 -20 18 -8 30 12 13 23 7 23 -11z
m-475 -82 c0 -7 -6 -15 -12 -17 -8 -3 -13 4 -13 17 0 13 5 20 13 18 6 -3 12
-11 12 -18z m7618 -135 c-3 -9 -8 -14 -10 -11 -3 3 -2 9 2 15 9 16 15 13 8 -4z
m-1456 -137 c-3 -8 -6 -5 -6 6 -1 11 2 17 5 13 3 -3 4 -12 1 -19z m-5613 -5
c-5 -5 -12 -12 -16 -18 -4 -6 -8 -2 -8 8 0 9 7 17 17 17 9 0 12 -3 7 -7z
m2812 -115 l29 -33 -35 30 c-19 17 -37 31 -39 33 -2 1 0 2 5 2 6 0 23 -15 40
-32z m-2951 13 c7 -12 -12 -24 -25 -16 -11 7 -4 25 10 25 5 0 11 -4 15 -9z
m5535 -26 c0 -8 -7 -15 -15 -15 -26 0 -18 20 13 29 1 1 2 -6 2 -14z m-6318
-20 c3 3 10 -6 16 -20 7 -15 8 -26 2 -30 -14 -9 7 -45 25 -45 19 0 19 -15 -1
-34 -12 -12 -12 -16 -2 -17 7 0 3 -5 -10 -11 -15 -8 -21 -17 -16 -30 3 -10 1
-18 -5 -18 -6 0 -11 6 -11 12 0 7 -10 2 -22 -10 -25 -25 -35 -100 -10 -80 9 8
12 6 12 -5 0 -8 4 -17 9 -19 4 -1 5 -11 2 -21 -11 -30 -42 2 -46 48 -2 22 -6
51 -9 65 -14 63 -20 109 -21 155 0 47 2 50 28 53 15 2 27 8 27 14 0 7 4 7 13
-1 8 -6 16 -9 19 -6z m7358 -95 c0 -5 -2 -10 -4 -10 -3 0 -8 5 -11 10 -3 6 -1
10 4 10 6 0 11 -4 11 -10z m1130 -140 c0 -5 -5 -10 -11 -10 -5 0 -7 5 -4 10 3
6 8 10 11 10 2 0 4 -4 4 -10z m-8465 -10 c3 -5 -1 -10 -10 -10 -9 0 -13 5 -10
10 3 6 8 10 10 10 2 0 7 -4 10 -10z m4 -92 c0 -13 -3 -17 -6 -10 -2 6 -9 10
-14 7 -5 -4 -6 1 -3 9 9 24 24 19 23 -6z m6966 -59 c4 -17 4 -33 1 -36 -3 -4
-6 1 -6 9 0 9 -7 21 -15 28 -19 16 -19 30 -1 30 8 0 17 -14 21 -31z m186 14
c13 -17 13 -17 -6 -3 -11 8 -22 16 -24 17 -2 2 0 3 6 3 6 0 17 -8 24 -17z
m-7181 -9 c0 -2 -7 -4 -15 -4 -8 0 -15 4 -15 10 0 5 7 7 15 4 8 -4 15 -8 15
-10z m4140 1 c11 -13 8 -15 -14 -15 -14 0 -26 4 -26 10 0 5 7 6 17 3 11 -4 14
-3 9 5 -10 17 -1 15 14 -3z m140 -20 c7 -8 8 -15 2 -15 -5 0 -15 7 -22 15 -7
8 -8 15 -2 15 5 0 15 -7 22 -15z m1674 -80 c3 -8 1 -15 -4 -15 -6 0 -10 7 -10
15 0 8 2 15 4 15 2 0 6 -7 10 -15z m75 -29 c14 -8 30 -13 35 -12 6 2 8 1 4 -1
-4 -2 -4 -12 -1 -21 5 -13 0 -11 -21 6 -16 12 -35 22 -42 22 -8 0 -14 5 -14
10 0 13 10 12 39 -4z m-1689 -103 c0 -7 -5 -13 -11 -13 -5 0 -8 4 -4 9 3 6 -2
14 -11 19 -12 6 -15 16 -10 28 7 17 9 17 21 -6 8 -14 14 -31 15 -37z m-70 21
c0 -8 -4 -12 -10 -9 -5 3 -10 10 -10 16 0 5 5 9 10 9 6 0 10 -7 10 -16z m1766
-77 c4 -4 19 -7 33 -8 14 0 20 -3 13 -6 -6 -2 -9 -10 -6 -15 5 -8 -3 -9 -26
-5 -25 5 -31 4 -27 -7 4 -11 -3 -13 -33 -9 -45 6 -83 -1 -102 -20 -7 -7 -30
-23 -50 -36 -21 -12 -38 -29 -38 -36 0 -7 -5 -15 -11 -17 -5 -2 -11 -12 -13
-23 -2 -11 -10 -19 -20 -19 -8 1 -13 -2 -10 -7 8 -14 -26 -23 -39 -10 -8 8 -7
11 6 11 10 0 14 5 11 14 -3 8 3 17 14 20 11 4 25 13 31 20 13 15 -4 16 -52 2
-21 -6 -25 -11 -15 -17 10 -7 10 -9 -3 -9 -8 0 -24 7 -35 15 -18 14 -18 14 6
16 40 3 43 4 88 27 23 12 42 29 42 37 0 18 -5 18 -32 4 -16 -8 -19 -8 -16 2 2
7 11 16 19 19 8 4 28 15 46 24 17 9 53 19 80 22 26 4 54 10 62 14 17 9 67 7
77 -3z m-61 -67 c-3 -5 -16 -10 -28 -9 -20 1 -20 2 3 9 14 4 26 8 28 9 2 1 0
-3 -3 -9z m52 -6 c-3 -3 -12 -4 -19 -1 -8 3 -5 6 6 6 11 1 17 -2 13 -5z m-110
-10 c-3 -3 -12 -4 -19 -1 -8 3 -5 6 6 6 11 1 17 -2 13 -5z m593 -58 c0 -3 -4
-8 -10 -11 -5 -3 -10 -1 -10 4 0 6 5 11 10 11 6 0 10 -2 10 -4z m-830 -56 c13
-8 13 -10 -2 -10 -9 0 -20 5 -23 10 -8 13 5 13 25 0z m840 -34 c5 -13 16 -26
24 -29 9 -4 16 -11 16 -17 0 -19 -33 -10 -56 16 -17 18 -24 21 -24 10 0 -9 -3
-16 -8 -16 -4 0 -6 18 -4 40 4 36 6 39 24 29 10 -6 23 -21 28 -33z m1024 9
c-25 -19 -40 -19 -24 0 7 8 20 15 28 15 13 0 12 -3 -4 -15z m221 5 c-3 -5 -16
-10 -28 -9 -20 1 -20 2 3 9 14 4 26 8 28 9 2 1 0 -3 -3 -9z m-2090 -50 c-3 -5
-12 -10 -18 -10 -7 0 -6 4 3 10 19 12 23 12 15 0z m-311 -52 c-3 -13 -11 -29
-17 -36 -8 -10 -7 -16 3 -22 19 -12 12 -17 -50 -40 -36 -13 -58 -16 -69 -10
-13 8 -12 9 6 10 26 0 41 19 23 30 -9 6 -4 13 16 26 16 10 38 28 49 41 27 29
48 30 39 1z m-124 -78 c0 -5 -5 -10 -11 -10 -5 0 -7 5 -4 10 3 6 8 10 11 10 2
0 4 -4 4 -10z m2363 -50 c-3 -12 -8 -19 -11 -16 -5 6 5 36 12 36 2 0 2 -9 -1
-20z m-2230 -97 c-13 -2 -33 -2 -45 0 -13 2 -3 4 22 4 25 0 35 -2 23 -4z
m1637 -34 c0 -10 -4 -19 -10 -19 -5 0 -10 4 -10 9 0 5 -3 17 -6 25 -5 12 -2
15 10 10 9 -3 16 -15 16 -25z m-1629 5 c12 -14 11 -16 -5 -13 -11 2 -21 10
-24 17 -5 17 13 15 29 -4z m1743 -49 c-4 -8 -8 -15 -10 -15 -2 0 -4 7 -4 15 0
8 4 15 10 15 5 0 7 -7 4 -15z m-24 -31 c0 -8 -4 -12 -10 -9 -5 3 -10 13 -10
21 0 8 5 12 10 9 6 -3 10 -13 10 -21z m60 -11 c0 -11 -3 -14 -8 -7 -4 6 -14
14 -22 17 -10 4 -8 6 8 6 15 1 22 -5 22 -16z m-110 -29 c0 -8 -4 -12 -10 -9
-5 3 -10 10 -10 16 0 5 5 9 10 9 6 0 10 -7 10 -16z m40 -20 c0 -9 5 -12 12 -8
7 5 9 2 5 -9 -3 -8 1 -21 8 -27 8 -7 12 -17 8 -24 -3 -6 -3 -8 2 -4 14 13 37
-13 25 -27 -8 -10 -20 -11 -42 -4 -17 4 -32 10 -35 12 -8 9 10 37 25 37 12 0
11 5 -6 23 -23 25 -29 47 -12 47 6 0 10 -7 10 -16z m-450 2 c0 -2 -7 -6 -15
-10 -8 -3 -15 -1 -15 4 0 6 7 10 15 10 8 0 15 -2 15 -4z m1280 -6 c0 -5 -7
-10 -15 -10 -8 0 -15 5 -15 10 0 6 7 10 15 10 8 0 15 -4 15 -10z m-70 -120 c0
-12 -28 -25 -36 -17 -9 9 6 27 22 27 8 0 14 -5 14 -10z m37 -6 c-3 -3 -12 -4
-19 -1 -8 3 -5 6 6 6 11 1 17 -2 13 -5z m-3189 -157 c46 6 56 -8 41 -56 -8
-29 -18 -41 -31 -41 -10 0 -18 -4 -18 -10 0 -5 6 -7 14 -4 7 3 16 -2 19 -10 8
-21 31 -20 48 0 12 14 14 14 21 -5 4 -12 12 -21 17 -21 16 0 33 40 29 64 -4
18 0 22 20 21 14 0 27 -7 30 -15 11 -34 24 -41 43 -24 14 12 22 13 38 4 24
-12 27 -26 9 -33 -10 -3 -10 -8 1 -18 8 -8 11 -9 7 -2 -5 9 -1 9 16 0 96 -52
129 -100 82 -117 -13 -5 -24 -13 -24 -18 0 -13 -41 -28 -85 -31 -21 -1 -44 -6
-50 -11 -6 -5 -20 -7 -31 -4 -11 3 -39 1 -62 -5 -36 -7 -44 -6 -49 6 -5 12
-11 9 -29 -12 -13 -15 -27 -24 -33 -21 -5 4 -14 -1 -19 -11 -9 -15 -13 -14
-38 14 l-27 32 -14 -26 c-8 -16 -11 -39 -8 -55 6 -24 3 -29 -19 -38 -14 -5
-26 -16 -26 -25 0 -8 -5 -15 -11 -15 -5 0 -8 -4 -5 -9 3 -5 -1 -14 -8 -20 -11
-10 -24 -5 -63 22 -42 30 -55 34 -103 32 -30 -1 -55 -4 -55 -5 0 -1 -12 -3
-26 -4 -15 -1 -33 -7 -41 -13 -20 -17 -33 -4 -44 48 -10 45 -10 47 18 63 15
10 28 23 28 30 0 18 40 28 56 15 14 -11 64 -2 64 13 0 5 -4 6 -10 3 -16 -10
-12 11 5 25 16 14 21 60 6 60 -10 0 -24 32 -30 67 0 4 -9 -8 -19 -27 -19 -34
-45 -53 -40 -28 2 7 -3 12 -9 10 -16 -3 -16 0 -1 33 8 19 14 22 20 13 6 -9 7
-5 3 10 -7 24 19 60 30 42 4 -6 11 -8 16 -4 5 3 8 0 7 -8 -2 -9 7 -12 31 -10
20 2 31 0 27 -6 -3 -6 -1 -12 5 -14 6 -2 1 -16 -13 -33 -17 -22 -19 -27 -6
-22 11 4 21 0 26 -10 11 -19 36 -7 28 13 -3 8 -2 14 3 14 4 0 25 11 45 25 21
14 41 23 46 20 5 -3 11 -1 15 5 3 5 17 10 30 10 18 0 22 4 18 20 -3 12 0 20 6
20 7 0 9 -4 6 -10 -3 -6 1 -7 9 -4 18 7 22 34 6 34 -5 0 -10 9 -10 21 0 11 -5
17 -10 14 -6 -4 -8 -11 -5 -16 3 -5 -2 -6 -11 -2 -14 5 -16 2 -10 -21 6 -25 5
-26 -15 -16 -16 9 -24 8 -38 -4 -10 -9 -25 -16 -34 -16 -21 0 -22 23 -3 39 8
7 12 20 9 30 -3 13 2 20 19 24 38 11 58 8 58 -8 0 -23 16 -18 47 14 16 16 29
23 31 17 2 -7 15 -11 30 -9z m-358 -21 c0 -2 -7 -7 -16 -10 -8 -3 -12 -2 -9 4
6 10 25 14 25 6z m120 -26 c-6 -11 -16 -20 -23 -20 -7 0 -6 4 3 10 13 9 13 10
0 10 -13 0 -13 1 0 10 24 15 32 12 20 -10z m-1319 -33 c-13 -13 -15 1 -4 30 7
17 8 17 11 -1 2 -10 -1 -23 -7 -29z m-154 11 c-3 -8 -6 -5 -6 6 -1 11 2 17 5
13 3 -3 4 -12 1 -19z m-24 -43 c-3 -9 -8 -14 -10 -11 -3 3 -2 9 2 15 9 16 15
13 8 -4z m1267 -5 c0 -5 -10 -10 -22 -9 -22 0 -22 1 -3 9 11 5 21 9 23 9 1 1
2 -3 2 -9z m-1132 -64 c9 -75 17 -89 43 -81 11 4 19 2 19 -4 0 -6 -4 -11 -10
-11 -5 0 -10 -7 -10 -15 0 -8 -6 -24 -12 -36 -11 -17 -10 -22 5 -34 10 -7 29
-12 42 -10 20 2 25 -3 30 -37 6 -33 3 -44 -15 -63 -14 -15 -18 -25 -11 -30 6
-3 11 1 11 9 0 9 4 16 9 16 5 0 13 9 16 20 4 11 13 19 22 18 15 -3 27 11 37
44 7 24 70 34 99 16 12 -8 29 -14 38 -13 9 2 16 -2 16 -9 -1 -31 4 -46 14 -44
6 2 15 -8 20 -20 9 -23 8 -24 -30 -17 -36 6 -39 4 -60 -31 -26 -43 -21 -69 10
-59 19 6 21 4 17 -21 -3 -16 -9 -37 -13 -46 -5 -14 -2 -18 12 -18 29 0 27 -39
-3 -50 -35 -14 -50 -12 -68 5 -13 14 -16 13 -30 -6 -14 -21 -15 -21 -50 15
-26 25 -36 44 -36 66 0 30 -1 31 -37 24 -47 -8 -53 -13 -27 -20 27 -7 30 -70
5 -84 -22 -11 -41 5 -41 36 0 30 -35 41 -59 20 -25 -23 -48 -20 -67 10 -12 17
-20 22 -27 15 -6 -6 -22 -11 -37 -12 -23 0 -23 -1 -5 -9 19 -8 19 -9 -2 -9
-14 -1 -23 5 -23 14 0 8 -8 15 -18 15 -14 0 -18 7 -16 28 1 23 -3 28 -23 30
-19 1 -24 -2 -21 -16 2 -9 10 -16 16 -14 18 3 15 -15 -3 -22 -17 -6 -18 -3
-35 60 -9 37 -13 41 -35 36 -14 -2 -25 -1 -25 3 0 14 51 55 68 55 11 0 13 -3
6 -8 -17 -10 5 -28 34 -26 13 1 26 -4 29 -11 11 -31 85 -27 82 4 -3 38 2 51
27 57 23 6 25 10 20 43 -6 30 -4 34 6 20 11 -14 15 -14 27 -2 7 8 10 24 7 37
-9 38 -56 46 -56 10 0 -19 -16 -18 -24 3 -4 9 0 23 8 31 13 14 12 20 -14 52
-28 36 -29 37 -9 53 15 14 23 15 38 5 15 -9 28 -9 60 2 22 7 38 16 36 20 -2 4
2 7 9 7 7 0 13 -5 14 -11z m-221 -32 c-3 -3 -12 -4 -19 -1 -8 3 -5 6 6 6 11 1
17 -2 13 -5z m-391 -16 c5 -7 3 -8 -5 -3 -9 5 -12 2 -9 -11 2 -11 8 -19 15
-19 24 0 21 -11 -4 -13 -34 -3 -47 17 -26 40 19 21 20 21 29 6z m1849 -13
c-35 -29 -45 -31 -45 -9 0 9 6 14 12 12 7 -3 19 1 26 9 7 7 19 13 25 13 7 0
-1 -11 -18 -25z m-1591 -11 c14 3 30 -2 37 -10 9 -11 7 -18 -10 -33 -11 -10
-21 -25 -22 -32 -1 -20 -33 -72 -47 -77 -6 -2 -17 7 -23 21 -9 19 -8 31 4 54
10 19 12 34 6 44 -5 8 -9 22 -9 32 0 15 3 16 20 7 11 -6 31 -8 44 -6z m-164
-3 c0 -22 -13 -41 -29 -42 -9 -1 -5 -4 9 -8 15 -4 28 -3 32 3 5 7 8 4 8 -7 0
-14 5 -17 19 -12 25 8 39 -19 32 -60 -5 -25 -11 -31 -39 -33 -18 -2 -30 -7
-27 -12 3 -5 -9 -2 -27 8 -18 9 -35 20 -36 25 -2 4 -8 5 -13 2 -11 -7 19 -55
35 -55 6 0 12 -9 13 -20 1 -13 -6 -22 -22 -26 -34 -9 -47 3 -40 36 7 32 -10
74 -26 65 -5 -4 -8 -1 -7 6 2 6 -3 14 -10 16 -7 3 -10 -1 -7 -9 3 -8 2 -24 -3
-37 -8 -22 -8 -22 -41 10 -25 24 -30 33 -20 40 10 6 6 11 -14 18 -16 6 -33 11
-39 11 -13 0 -4 12 9 12 4 0 16 4 26 10 13 6 23 5 35 -4 13 -11 15 -11 10 3
-5 11 -1 16 10 15 9 0 20 -10 24 -21 5 -17 6 -16 7 6 1 24 5 26 39 25 27 -1
36 3 34 13 -2 8 3 18 10 22 18 12 48 11 48 0z m360 -6 c0 -7 -10 -11 -22 -10
-33 3 -34 4 -20 13 19 13 42 10 42 -3z m-770 -35 c-20 -13 -33 -13 -25 0 3 6
14 10 23 10 15 0 15 -2 2 -10z m690 -5 c15 -18 5 -35 -20 -35 -10 0 -22 -5
-25 -10 -9 -15 -35 8 -35 30 0 30 58 41 80 15z m600 5 c0 -5 -5 -10 -11 -10
-5 0 -7 5 -4 10 3 6 8 10 11 10 2 0 4 -4 4 -10z m-1263 -7 c-4 -3 -2 -12 4
-20 9 -9 8 -13 0 -13 -6 0 -11 6 -11 13 0 6 -5 4 -11 -6 -5 -9 -7 -22 -4 -27
7 -11 -22 -26 -32 -16 -3 3 -1 11 5 18 10 13 12 19 12 37 0 5 8 12 18 14 9 3
19 5 21 6 2 0 1 -2 -2 -6z m90 -1 c-3 -4 3 -25 14 -46 10 -22 19 -41 19 -43 0
-10 -30 0 -41 14 -12 14 -12 16 0 8 10 -6 12 -4 7 4 -6 9 -13 8 -27 -5 -19
-17 -20 -17 -13 2 7 17 6 17 -9 5 -9 -7 -14 -18 -11 -23 4 -6 1 -14 -6 -18
-10 -6 -7 -12 9 -26 26 -23 27 -34 2 -27 -22 6 -48 66 -31 71 5 2 10 11 10 21
0 9 5 22 12 29 7 7 8 12 3 12 -14 1 38 29 53 30 7 0 11 -3 9 -8z m-147 -20 c0
-13 -40 -43 -50 -37 -13 8 -1 33 18 38 28 8 32 7 32 -1z m1095 -2 c3 -5 -1
-10 -9 -10 -9 0 -16 5 -16 10 0 6 4 10 9 10 6 0 13 -4 16 -10z m161 -17 c-7
-7 -26 7 -26 19 0 6 6 6 15 -2 9 -7 13 -15 11 -17z m-386 13 c0 -3 -4 -8 -10
-11 -5 -3 -10 -1 -10 4 0 6 5 11 10 11 6 0 10 -2 10 -4z m1094 -4 c2 -4 1 -14
-4 -21 -10 -17 -31 -5 -23 14 6 16 19 20 27 7z m-49 -12 c8 -13 -5 -13 -25 0
-13 8 -13 10 2 10 9 0 20 -4 23 -10z m-2705 -20 c0 -5 -7 -10 -15 -10 -8 0
-15 5 -15 10 0 6 7 10 15 10 8 0 15 -4 15 -10z m1459 -24 c15 -18 6 -23 -47
-25 -29 0 -41 3 -36 10 3 6 15 9 25 6 12 -3 19 0 19 9 0 18 24 18 39 0z m1367
-1 c-3 -8 2 -19 12 -24 10 -6 12 -11 5 -11 -7 0 -13 -9 -13 -20 0 -13 -7 -20
-20 -20 -17 0 -19 3 -10 19 15 29 12 38 -12 45 -19 5 -21 8 -8 16 24 15 53 12
46 -5z m-126 -9 c0 -7 -9 -16 -21 -19 -20 -5 -20 -5 -3 14 20 23 24 23 24 5z
m-1314 -36 c30 7 35 6 32 -8 -2 -11 -16 -19 -38 -22 -25 -4 -35 -10 -34 -23 1
-9 -2 -17 -8 -17 -5 0 -8 18 -6 40 1 23 6 36 11 31 5 -5 24 -5 43 -1z m-854
-25 c4 -18 0 -26 -13 -30 -11 -4 -19 -12 -19 -20 0 -9 -8 -11 -22 -7 l-23 5
20 -23 c17 -20 18 -22 3 -17 -11 4 -21 0 -27 -11 -5 -9 -13 -13 -17 -9 -10 9
25 77 43 84 7 3 13 11 13 19 0 8 6 11 15 8 11 -5 13 -2 9 10 -3 9 -2 16 4 16
5 0 12 -11 14 -25z m-177 5 c3 -5 4 -10 1 -10 -2 0 -12 -3 -20 -6 -12 -5 -15
-2 -10 10 7 18 20 21 29 6z m455 -10 c0 -11 -6 -20 -13 -20 -19 0 -27 10 -20
26 8 21 33 17 33 -6z m137 -4 c-7 -15 -16 -21 -21 -16 -12 12 0 40 18 40 11 0
12 -5 3 -24z m326 -1 c-5 -13 -23 -22 -23 -11 0 15 14 35 21 31 4 -3 6 -12 2
-20z m247 -5 c-8 -6 -22 -10 -30 -9 -9 0 -5 6 10 14 27 14 44 10 20 -5z m-885
-20 c-8 -24 10 -27 31 -5 27 26 33 16 16 -25 -9 -21 -18 -35 -20 -30 -2 6 -10
10 -18 10 -8 0 -14 5 -14 10 0 6 -8 10 -18 10 -28 0 -32 10 -14 31 22 26 45
25 37 -1z m2169 -17 c-16 -13 -34 -27 -40 -32 -6 -5 -17 -5 -25 0 -13 8 -6 13
14 10 4 0 7 6 7 14 0 8 6 15 14 15 7 0 19 7 26 15 7 8 17 12 23 8 6 -4 -2 -16
-19 -30z m-2030 -26 c4 -18 7 -37 8 -44 1 -7 4 -10 8 -8 3 2 12 0 20 -6 9 -5
10 -9 3 -9 -6 0 -19 -3 -27 -6 -12 -5 -21 5 -36 38 -16 37 -18 52 -11 87 3 14
30 -26 35 -52z m274 25 c2 -7 -2 -10 -11 -6 -11 4 -14 0 -11 -13 6 -22 -19
-48 -36 -38 -17 11 -11 43 12 59 24 17 39 17 46 -2z m-718 -7 c-7 -8 -16 -15
-21 -15 -5 0 -9 7 -9 15 0 9 9 15 21 15 18 0 19 -2 9 -15z m2633 -22 c-8 -21
-20 -14 -20 11 0 19 2 22 12 13 7 -7 10 -18 8 -24z m-2393 17 c0 -5 -4 -10
-10 -10 -5 0 -10 5 -10 10 0 6 5 10 10 10 6 0 10 -4 10 -10z m2095 1 c3 -5 2
-12 -3 -15 -5 -3 -9 1 -9 9 0 17 3 19 12 6z m-2372 -41 c-3 -11 -9 -20 -14
-20 -11 0 -11 3 -3 24 9 23 23 20 17 -4z m2002 -10 c23 19 34 3 30 -43 -4 -31
-2 -38 6 -27 8 11 12 12 15 3 3 -7 11 -10 19 -7 13 5 55 -44 55 -65 0 -6 9
-15 19 -20 14 -8 22 -7 31 4 16 19 47 19 47 1 0 -8 -4 -14 -8 -13 -4 1 -14 -7
-22 -17 -11 -15 -18 -17 -32 -8 -14 7 -25 6 -42 -5 -14 -10 -29 -12 -40 -7
-10 4 -22 8 -28 9 -5 0 -16 5 -24 10 -10 5 -16 4 -19 -3 -6 -19 -29 -14 -35 7
-2 11 0 25 7 32 8 9 8 10 -1 5 -7 -4 -13 -2 -13 3 0 6 7 11 15 11 14 0 19 -12
16 -32 0 -5 4 -8 10 -8 7 0 9 10 4 27 -5 23 -4 25 10 13 13 -11 15 -10 9 4 -3
9 -13 16 -20 16 -11 0 -12 5 -5 18 6 12 5 25 -5 42 -7 14 -13 19 -14 11 0 -24
-9 -7 -14 29 -5 28 -4 31 5 17 8 -14 14 -16 24 -7z m-1205 -4 c0 -8 -7 -16
-15 -20 -17 -6 -18 -4 -9 18 8 20 24 21 24 2z m-880 -16 c-8 -5 -22 -10 -30
-10 -13 0 -13 1 0 10 8 5 22 10 30 10 13 0 13 -1 0 -10z m220 -22 c0 -19 -2
-20 -10 -8 -13 19 -13 30 0 30 6 0 10 -10 10 -22z m2780 12 c0 -5 -4 -10 -9
-10 -6 0 -13 5 -16 10 -3 6 1 10 9 10 9 0 16 -4 16 -10z m-1810 -14 c0 -3 -4
-8 -10 -11 -5 -3 -10 -1 -10 4 0 6 5 11 10 11 6 0 10 -2 10 -4z m-1050 -11 c0
-2 -9 -9 -20 -15 -16 -9 -18 -8 -14 5 5 13 34 22 34 10z m2170 -5 c0 -5 -5
-10 -11 -10 -5 0 -7 5 -4 10 3 6 8 10 11 10 2 0 4 -4 4 -10z m-1320 -30 c0
-11 -7 -20 -15 -20 -8 0 -15 7 -15 16 0 8 5 12 10 9 6 -3 10 -1 10 4 0 6 2 11
5 11 3 0 5 -9 5 -20z m1440 0 c-6 -11 -13 -20 -16 -20 -2 0 0 9 6 20 6 11 13
20 16 20 2 0 0 -9 -6 -20z m-475 -10 c-3 -5 -11 -10 -16 -10 -6 0 -7 5 -4 10
3 6 11 10 16 10 6 0 7 -4 4 -10z m-1804 -18 c-7 -2 -18 1 -23 6 -8 8 -4 9 13
5 13 -4 18 -8 10 -11z m3232 -12 c3 -11 3 -20 1 -20 -2 0 -8 9 -14 20 -6 11
-7 20 -2 20 6 0 12 -9 15 -20z m-2513 -4 c0 -2 -7 -17 -15 -32 l-15 -29 0 33
c0 22 5 32 15 32 8 0 15 -2 15 -4z m1067 -48 c-3 -7 -5 -2 -5 12 0 14 2 19 5
13 2 -7 2 -19 0 -25z m-55 -26 c-7 -2 -12 -12 -12 -23 0 -20 -24 -26 -35 -9
-8 13 33 52 47 44 9 -6 9 -9 0 -12z m-75 -9 c2 -6 -9 -13 -24 -16 -33 -6 -35
-5 -27 16 6 18 46 17 51 0z m553 -12 c0 -3 -7 -15 -16 -26 -13 -17 -16 -18
-24 -5 -13 21 -12 38 3 43 14 5 37 -2 37 -12z m-80 -75 c0 -3 -4 -8 -10 -11
-5 -3 -10 -1 -10 4 0 6 5 11 10 11 6 0 10 -2 10 -4z m185 -46 c3 -6 -1 -7 -9
-4 -18 7 -21 14 -7 14 6 0 13 -4 16 -10z m622 -162 c-3 -8 -6 -5 -6 6 -1 11 2
17 5 13 3 -3 4 -12 1 -19z"/>
<path d="M4260 8240 c0 -5 5 -10 11 -10 5 0 7 5 4 10 -3 6 -8 10 -11 10 -2 0
-4 -4 -4 -10z"/>
<path d="M5760 8170 c0 -5 5 -10 11 -10 5 0 7 5 4 10 -3 6 -8 10 -11 10 -2 0
-4 -4 -4 -10z"/>
<path d="M5980 8111 c0 -5 7 -15 17 -22 15 -13 15 -12 4 9 -12 23 -21 28 -21
13z"/>
<path d="M6060 7960 c-9 -16 -8 -20 5 -20 8 0 15 9 15 20 0 11 -2 20 -5 20 -2
0 -9 -9 -15 -20z"/>
<path d="M3645 7940 c3 -5 8 -10 11 -10 2 0 4 5 4 10 0 6 -5 10 -11 10 -5 0
-7 -4 -4 -10z"/>
<path d="M2683 7933 c-22 -8 -14 -23 12 -23 14 0 25 4 25 9 0 11 -21 19 -37
14z"/>
<path d="M3306 7804 c-8 -22 1 -34 26 -34 20 0 20 1 5 18 -10 10 -14 22 -10
25 3 4 2 7 -4 7 -6 0 -14 -7 -17 -16z"/>
<path d="M6566 7761 c-4 -5 -2 -12 3 -15 5 -4 12 -2 15 3 4 5 2 12 -3 15 -5 4
-12 2 -15 -3z"/>
<path d="M3475 7750 c3 -5 11 -10 16 -10 6 0 7 5 4 10 -3 6 -11 10 -16 10 -6
0 -7 -4 -4 -10z"/>
<path d="M6653 7735 c-10 -11 -9 -13 7 -12 20 1 26 12 13 20 -5 3 -14 -1 -20
-8z"/>
<path d="M6733 7693 c-15 -5 -17 -23 -4 -23 5 0 11 7 15 15 3 8 4 15 3 14 -1
0 -8 -3 -14 -6z"/>
<path d="M6670 7646 c0 -2 7 -6 15 -10 8 -3 15 -1 15 4 0 6 -7 10 -15 10 -8 0
-15 -2 -15 -4z"/>
<path d="M4601 7587 c-8 -11 -6 -18 9 -32 20 -18 20 -17 20 13 0 34 -10 41
-29 19z"/>
<path d="M6840 7446 c0 -9 39 -13 51 -5 10 6 4 9 -18 9 -18 0 -33 -2 -33 -4z"/>
<path d="M7063 7296 c5 -13 -16 -18 -70 -19 -31 -1 -39 -14 -18 -29 6 -4 -8
-7 -29 -5 -30 1 -40 -2 -42 -15 -1 -13 5 -16 35 -13 20 2 73 -2 118 -8 64 -8
88 -8 106 2 15 8 39 10 68 6 68 -10 179 -13 174 -5 -3 5 2 10 10 14 8 3 15 0
15 -6 0 -9 3 -9 11 -1 6 6 17 9 25 6 7 -2 21 0 31 5 25 15 13 17 -137 32 -143
14 -145 15 -182 29 -24 9 -28 8 -29 -7 0 -14 -2 -14 -8 2 -5 14 -10 16 -15 8
-4 -7 -15 -12 -24 -12 -15 0 -15 2 -2 10 8 5 11 10 5 11 -5 0 -18 2 -28 4 -11
2 -17 -1 -14 -9z"/>
<path d="M6485 7290 c3 -5 8 -10 11 -10 2 0 4 5 4 10 0 6 -5 10 -11 10 -5 0
-7 -4 -4 -10z"/>
<path d="M6848 7213 c7 -3 16 -2 19 1 4 3 -2 6 -13 5 -11 0 -14 -3 -6 -6z"/>
<path d="M6900 7190 c0 -6 7 -10 15 -10 8 0 15 2 15 4 0 2 -7 6 -15 10 -8 3
-15 1 -15 -4z"/>
<path d="M6978 7193 c6 -2 18 -2 25 0 6 3 1 5 -13 5 -14 0 -19 -2 -12 -5z"/>
<path d="M6957 7173 c-4 -3 -21 -7 -37 -8 -38 -2 -52 -15 -16 -15 20 0 27 -4
23 -14 -7 -17 11 -36 29 -29 7 2 22 -2 33 -9 22 -15 81 -12 81 4 0 5 4 7 9 3
5 -3 12 -1 16 5 6 10 -7 14 -34 11 -7 -2 -10 2 -6 8 4 7 -5 11 -24 11 -17 0
-31 -5 -31 -10 0 -7 -7 -7 -20 0 -11 6 -25 8 -30 5 -6 -3 -10 -2 -10 3 0 6 17
13 38 17 31 6 34 9 17 15 -26 11 -30 11 -38 3z m80 -49 c-3 -3 -12 -4 -19 -1
-8 3 -5 6 6 6 11 1 17 -2 13 -5z"/>
<path d="M7240 7170 c-6 -4 -23 -5 -37 -2 -18 3 -24 1 -19 -7 4 -6 33 -11 67
-11 50 0 58 2 47 13 -14 15 -41 18 -58 7z"/>
<path d="M3017 7123 c-4 -3 -7 -13 -7 -21 0 -12 3 -12 15 -2 8 7 15 16 15 21
0 11 -14 12 -23 2z"/>
<path d="M7172 7111 c3 -17 22 -20 138 -20 89 -1 99 16 14 23 -162 15 -155 15
-152 -3z"/>
<path d="M7720 7090 c0 -6 27 -10 67 -10 81 0 79 5 -4 14 -42 5 -63 3 -63 -4z"/>
<path d="M8697 7083 c-3 -5 11 -8 31 -6 l37 2 -37 -10 c-20 -6 -39 -18 -42
-26 -6 -14 2 -15 54 -10 50 4 60 2 60 -10 0 -13 3 -13 15 -3 9 7 18 10 22 6 3
-3 0 -6 -8 -6 -9 0 -7 -5 6 -12 28 -16 229 -22 219 -6 -5 7 -3 8 7 2 16 -10
56 -6 82 7 25 14 21 30 -5 21 -13 -5 -34 -7 -48 -6 -14 2 -49 4 -78 5 -53 2
-54 17 -2 20 24 2 24 2 3 6 -13 2 -23 11 -23 19 0 17 -5 17 -28 3 -13 -8 -32
-9 -67 -1 -30 6 -56 7 -65 2 -13 -8 -13 -9 3 -10 9 0 17 -4 17 -10 0 -5 -15
-10 -32 -10 -20 0 -28 3 -21 8 9 6 8 10 -5 18 -22 13 -88 18 -95 7z m220 -39
c-3 -3 -12 -4 -19 -1 -8 3 -5 6 6 6 11 1 17 -2 13 -5z"/>
<path d="M3618 7073 c7 -3 16 -2 19 1 4 3 -2 6 -13 5 -11 0 -14 -3 -6 -6z"/>
<path d="M6539 7063 c-1 -10 -1 -24 0 -32 2 -7 -2 -10 -8 -6 -7 3 -8 0 -5 -9
3 -9 -1 -23 -10 -31 -40 -40 -4 -61 42 -25 20 16 27 18 34 8 7 -11 6 2 -1 41
-1 2 -8 -2 -16 -9 -21 -17 -29 -7 -15 19 8 17 8 21 -4 21 -9 0 -12 7 -9 20 3
11 3 20 -1 20 -3 0 -7 -8 -7 -17z"/>
<path d="M7094 7071 c4 -5 0 -12 -6 -14 -7 -3 8 -6 35 -6 27 -1 47 4 47 10 0
5 -4 7 -10 4 -5 -3 -10 -1 -10 4 0 6 -14 11 -31 11 -16 0 -28 -4 -25 -9z"/>
<path d="M6985 7039 c4 -5 16 -9 27 -9 26 0 19 9 -11 15 -12 2 -19 0 -16 -6z"/>
<path d="M7053 7033 c9 -2 23 -2 30 0 6 3 -1 5 -18 5 -16 0 -22 -2 -12 -5z"/>
<path d="M8580 7036 c0 -2 7 -6 15 -10 8 -3 15 -1 15 4 0 6 -7 10 -15 10 -8 0
-15 -2 -15 -4z"/>
<path d="M8638 7033 c7 -3 16 -2 19 1 4 3 -2 6 -13 5 -11 0 -14 -3 -6 -6z"/>
<path d="M2806 7013 c-6 -14 -5 -15 5 -6 7 7 10 15 7 18 -3 3 -9 -2 -12 -12z"/>
<path d="M7675 7010 c27 -12 43 -12 25 0 -8 5 -22 9 -30 9 -10 0 -8 -3 5 -9z"/>
<path d="M8756 6991 c-11 -4 -47 -6 -81 -4 -48 3 -64 1 -68 -10 -4 -11 0 -13
16 -10 16 3 18 2 9 -5 -14 -10 120 -32 192 -32 36 0 38 -1 21 -13 -20 -16 -13
-37 13 -37 12 0 13 3 5 8 -10 6 -8 12 5 23 15 13 21 12 52 -3 21 -10 28 -17
18 -18 -32 0 -19 -20 15 -21 17 -1 35 -1 40 0 4 0 7 -3 7 -8 0 -5 16 -4 35 2
22 6 34 15 31 23 -3 9 8 16 32 20 l37 7 -30 8 c-16 5 -65 8 -108 7 -43 0 -81
2 -84 6 -3 3 28 6 70 6 42 0 79 5 82 10 3 6 -2 10 -12 11 -75 3 -182 10 -203
13 -14 2 -38 4 -55 5 -23 1 -27 3 -15 11 17 11 4 12 -24 1z"/>
<path d="M7327 6943 c-3 -5 14 -9 36 -11 31 -1 38 1 27 8 -18 11 -57 13 -63 3z"/>
<path d="M8656 6923 c-3 -8 -6 -16 -6 -18 0 -4 63 4 79 10 8 3 18 0 23 -7 6
-11 8 -11 8 0 0 14 -9 18 -62 25 -27 4 -38 1 -42 -10z"/>
<path d="M9280 6931 c0 -5 -8 -8 -17 -7 -23 1 -19 -28 7 -54 15 -15 25 -18 44
-10 13 5 26 7 29 4 2 -3 7 4 9 14 4 15 -4 25 -33 40 -22 12 -39 17 -39 13z
m21 -49 c-13 -2 -27 0 -32 5 -6 6 3 7 23 4 28 -4 29 -6 9 -9z"/>
<path d="M8796 6905 c4 -8 10 -15 15 -15 5 0 9 7 9 15 0 8 -7 15 -15 15 -9 0
-12 -6 -9 -15z"/>
<path d="M8568 6903 c7 -3 16 -2 19 1 4 3 -2 6 -13 5 -11 0 -14 -3 -6 -6z"/>
<path d="M8760 6880 c0 -5 7 -7 15 -4 8 4 15 8 15 10 0 2 -7 4 -15 4 -8 0 -15
-4 -15 -10z"/>
<path d="M9395 6880 c3 -5 8 -10 11 -10 2 0 4 5 4 10 0 6 -5 10 -11 10 -5 0
-7 -4 -4 -10z"/>
<path d="M9445 6860 c3 -5 10 -10 16 -10 5 0 9 5 9 10 0 6 -7 10 -16 10 -8 0
-12 -4 -9 -10z"/>
<path d="M2580 6830 c0 -5 5 -10 10 -10 6 0 10 5 10 10 0 6 -4 10 -10 10 -5 0
-10 -4 -10 -10z"/>
<path d="M6624 6823 c3 -8 6 -18 6 -22 0 -4 7 -8 15 -8 23 0 15 40 -8 43 -13
2 -17 -2 -13 -13z"/>
<path d="M8455 6780 c12 -13 22 -17 28 -11 13 13 -1 31 -25 31 -21 0 -21 -1
-3 -20z"/>
<path d="M7630 6761 c0 -5 7 -11 15 -15 8 -3 20 -18 26 -32 7 -21 12 -25 22
-15 9 9 9 14 -2 20 -8 5 -10 14 -6 21 4 7 2 16 -6 21 -18 11 -49 11 -49 0z"/>
<path d="M7200 6750 c0 -16 31 -33 41 -23 8 8 7 13 -3 19 -18 12 -38 14 -38 4z"/>
<path d="M6677 6739 c7 -7 15 -10 18 -7 3 3 -2 9 -12 12 -14 6 -15 5 -6 -5z"/>
<path d="M9102 6741 c2 -7 7 -12 11 -12 12 1 9 15 -3 20 -7 2 -11 -2 -8 -8z"/>
<path d="M7135 6700 c3 -5 8 -10 11 -10 2 0 4 5 4 10 0 6 -5 10 -11 10 -5 0
-7 -4 -4 -10z"/>
<path d="M1280 6690 c-9 -6 -10 -10 -3 -10 6 0 15 5 18 10 8 12 4 12 -15 0z"/>
<path d="M1934 6407 c-5 -13 -10 -14 -25 -6 -13 7 -19 6 -19 -1 0 -19 31 -23
48 -7 9 9 13 20 9 23 -4 4 -9 0 -13 -9z"/>
<path d="M2130 6380 c0 -6 5 -10 10 -10 6 0 10 -7 10 -16 0 -23 54 -14 58 10
3 11 0 16 -7 12 -6 -4 -17 -4 -23 1 -20 12 -48 14 -48 3z"/>
<path d="M2470 6369 c0 -25 33 -22 38 4 2 12 -3 17 -17 17 -15 0 -21 -6 -21
-21z"/>
<path d="M600 6365 c0 -21 67 -52 144 -66 37 -6 69 -9 72 -7 2 3 -14 17 -36
31 -74 50 -180 74 -180 42z"/>
<path d="M1817 6365 c-6 -14 35 -55 55 -55 12 0 21 27 13 40 -5 7 -11 5 -20
-7 -13 -17 -14 -16 -24 10 -12 31 -16 33 -24 12z"/>
<path d="M2053 6359 c-6 -6 -9 -18 -6 -25 7 -18 43 0 43 21 0 18 -21 20 -37 4z"/>
<path d="M2305 6351 c-3 -5 -1 -12 5 -16 5 -3 10 -18 10 -33 1 -24 2 -25 11
-9 8 13 7 22 -1 32 -6 8 -9 19 -5 25 3 5 2 10 -4 10 -5 0 -12 -4 -16 -9z"/>
<path d="M502 6308 c-31 -33 -28 -40 16 -38 62 3 70 2 52 -11 -12 -8 -10 -9 8
-4 28 8 62 -2 62 -20 0 -7 8 -15 18 -18 9 -2 26 -8 37 -12 11 -3 8 1 -7 10
-33 18 -37 29 -8 20 12 -4 20 -2 20 5 0 6 6 8 13 4 6 -4 3 3 -8 16 l-20 23 25
-8 c14 -4 31 -10 38 -12 6 -3 12 0 12 6 0 11 -31 16 -78 13 -14 0 -20 3 -16
10 4 7 2 8 -5 4 -6 -4 -25 0 -42 8 -58 29 -92 30 -117 4z"/>
<path d="M1750 6306 c0 -9 30 -14 35 -6 4 6 -3 10 -14 10 -12 0 -21 -2 -21 -4z"/>
<path d="M960 6254 c0 -8 5 -12 10 -9 6 3 10 10 10 16 0 5 -4 9 -10 9 -5 0
-10 -7 -10 -16z"/>
<path d="M447 6233 c-4 -3 -7 -15 -7 -25 0 -21 105 -78 145 -78 15 0 24 -4 21
-9 -3 -5 1 -12 9 -15 13 -5 14 -2 5 15 -6 11 -22 24 -35 29 -13 5 -29 21 -37
36 -10 21 -56 47 -94 54 0 0 -4 -3 -7 -7z"/>
<path d="M1230 7906 c0 -8 -8 -20 -17 -25 -10 -6 -13 -11 -7 -11 18 0 47 37
35 45 -6 3 -11 -1 -11 -9z"/>
<path d="M4944 6245 c-126 -23 -265 -79 -377 -151 -161 -104 -333 -328 -387
-505 l-17 -56 44 -43 c24 -23 42 -45 39 -47 -17 -17 152 -123 196 -123 8 0 19
-5 26 -12 10 -10 19 -9 45 4 34 18 234 59 412 83 142 20 331 20 470 0 114 -17
315 -60 350 -75 11 -5 35 -12 53 -15 64 -13 86 -91 37 -133 -30 -25 -52 -25
-135 2 -25 8 -61 18 -80 24 -36 9 -32 14 23 26 15 4 27 11 27 18 0 7 -16 8
-52 3 -68 -10 -118 -11 -193 -1 -114 15 -279 18 -350 5 -38 -6 -92 -13 -120
-14 -27 -1 -87 -12 -132 -24 l-82 -23 62 -70 c59 -66 64 -69 97 -63 181 32
220 36 385 36 99 0 191 -3 205 -6 14 -3 70 -15 125 -25 148 -29 203 -47 216
-71 15 -29 4 -63 -26 -79 -31 -16 -127 -5 -275 32 -96 24 -185 28 -310 14 -30
-3 -88 -8 -128 -11 -40 -3 -81 -9 -91 -14 -10 -6 -29 -8 -41 -6 -27 5 -130
-22 -130 -34 0 -8 120 -23 187 -24 19 0 35 -7 38 -15 4 -12 -3 -14 -45 -9 -36
4 -49 3 -44 -5 5 -8 1 -9 -10 -5 -10 4 -20 7 -22 7 -3 0 -2 4 1 10 3 6 -1 7
-9 4 -8 -3 -38 2 -65 11 -42 14 -56 14 -93 4 -24 -7 -47 -13 -53 -14 -28 -3
-103 -31 -122 -45 -14 -11 -44 -17 -85 -19 -41 -1 -58 2 -49 8 8 5 10 14 6 22
-12 18 -14 69 -3 69 5 0 12 8 15 18 4 9 14 22 22 29 13 10 5 12 -44 13 -41 0
-55 -3 -45 -10 22 -14 7 -20 -26 -11 -16 5 -21 10 -11 10 9 1 17 4 17 9 0 9
-83 62 -98 62 -22 0 -83 64 -126 130 -24 37 -49 71 -55 74 -17 11 -14 -94 4
-128 8 -15 15 -34 15 -40 0 -7 16 -27 35 -46 18 -18 33 -38 32 -43 -3 -17 55
-41 100 -42 23 0 41 -4 40 -9 -1 -6 23 -20 53 -33 37 -15 47 -22 32 -23 -31 0
-164 45 -229 78 -29 14 -55 23 -58 20 -13 -13 9 -60 34 -72 14 -8 64 -24 111
-36 47 -13 90 -26 95 -31 6 -4 24 -9 40 -12 17 -2 0 -4 -36 -3 -37 1 -65 4
-63 7 2 4 -3 10 -12 13 -22 8 -26 8 -19 -4 3 -5 1 -10 -6 -10 -8 0 -8 -4 1
-15 18 -22 166 -66 198 -59 21 5 18 1 -13 -15 -52 -28 -76 -27 -173 9 -91 33
-109 24 -49 -26 18 -15 31 -34 29 -44 -2 -10 9 -27 23 -38 23 -18 29 -19 68
-7 35 10 41 16 39 35 -3 18 0 21 14 16 9 -4 24 0 33 8 12 11 27 12 60 6 26 -5
55 -4 69 1 14 5 27 7 30 4 3 -3 0 -5 -6 -5 -7 0 -12 -5 -12 -12 0 -6 3 -8 7
-5 3 4 12 2 18 -3 7 -6 58 -14 114 -18 83 -6 101 -5 96 6 -3 9 1 12 13 9 46
-13 79 -21 95 -22 9 -2 20 -4 25 -5 4 -2 22 -4 40 -5 25 -1 30 2 20 11 -24 22
-130 45 -226 49 -136 6 -204 15 -199 29 3 6 10 10 17 8 7 -1 18 3 26 9 10 8
18 9 27 0 8 -6 17 -8 21 -4 9 9 189 4 249 -7 67 -13 144 -52 197 -99 25 -22
48 -41 53 -41 4 0 7 -7 7 -15 0 -8 11 -17 24 -21 24 -6 42 -31 31 -42 -3 -3
-5 0 -5 6 0 7 -9 12 -20 12 -11 0 -20 3 -20 8 0 4 -16 7 -35 7 -36 0 -34 -12
3 -20 12 -2 30 -9 39 -15 14 -9 11 -9 -17 -4 -30 6 -33 5 -22 -9 7 -8 9 -18 4
-21 -14 -9 -108 9 -134 26 -13 8 -33 17 -45 20 -32 8 -18 -18 18 -34 16 -7 29
-16 29 -20 0 -14 -35 -8 -60 9 -18 13 -48 17 -136 17 -62 1 -116 -2 -120 -7
-4 -4 3 -18 15 -31 l22 -24 -28 -7 c-15 -3 -75 -9 -132 -11 -58 -2 -106 -6
-108 -8 -8 -8 79 -76 98 -76 12 0 30 -11 41 -25 11 -14 24 -23 28 -20 5 3 17
1 27 -4 10 -5 38 -17 63 -26 25 -9 53 -21 62 -26 10 -5 29 -9 42 -9 14 0 27
-4 30 -9 9 -14 119 -24 276 -24 131 -1 157 2 265 30 148 38 199 58 192 76 -4
10 2 13 19 9 24 -4 114 41 114 57 0 5 14 11 30 15 67 13 243 222 322 381 84
168 117 394 84 570 -19 98 -46 198 -59 213 -5 7 -7 15 -4 18 3 3 -19 54 -48
112 -154 304 -412 515 -717 588 -106 26 -299 30 -414 9z m256 -496 c171 -3
353 -34 560 -96 100 -29 107 -35 132 -90 17 -39 17 -45 3 -72 -24 -48 -48 -56
-129 -41 -39 7 -75 17 -81 21 -5 4 -26 10 -45 13 -19 3 -64 12 -100 21 -36 8
-94 18 -130 21 -36 4 -71 12 -79 17 -8 7 -84 11 -210 11 -189 -1 -274 -10
-386 -44 -16 -5 -55 -17 -85 -26 -30 -9 -68 -22 -85 -30 -113 -49 -197 -33
-211 41 -3 19 -3 47 1 62 10 43 69 91 133 109 31 8 64 18 72 21 18 7 25 9 125
28 100 20 294 41 360 38 28 -1 97 -3 155 -4z m-877 -797 c27 -4 38 -21 15 -23
-7 0 -21 -2 -31 -4 -11 -2 -16 -1 -13 2 3 3 -5 14 -17 25 -20 18 -20 19 -2 12
11 -4 32 -9 48 -12z m660 -69 c-7 -2 -19 -2 -25 0 -7 3 -2 5 12 5 14 0 19 -2
13 -5z m117 -38 c0 -9 -6 -12 -15 -9 -8 4 -12 10 -9 15 8 14 24 10 24 -6z
m-207 -32 c-7 -2 -21 -2 -30 0 -10 3 -4 5 12 5 17 0 24 -2 18 -5z m70 -10 c-7
-2 -21 -2 -30 0 -10 3 -4 5 12 5 17 0 24 -2 18 -5z m-53 -13 c0 -5 24 -14 53
-20 64 -13 101 -33 42 -22 -43 7 -172 7 -218 -1 -33 -5 -26 3 22 30 35 19 101
28 101 13z m-330 -82 c0 -11 -32 -10 -50 2 -11 7 -6 9 17 7 18 -1 33 -5 33 -9z
m631 -35 c13 -17 13 -17 -6 -3 -11 8 -22 16 -24 17 -2 2 0 3 6 3 6 0 17 -8 24
-17z"/>
<path d="M4156 5487 c2 -7 14 -19 27 -26 21 -13 21 -12 -2 13 -27 29 -33 32
-25 13z"/>
<path d="M4150 5436 c0 -17 42 -65 61 -71 11 -4 18 -9 16 -12 -3 -2 -19 3 -37
12 -35 18 -51 14 -28 -7 31 -30 140 -97 175 -109 21 -7 46 -20 56 -28 10 -8
17 -10 17 -3 0 6 12 25 26 42 15 17 25 32 23 34 -2 1 -26 11 -54 21 -27 10
-77 32 -110 50 -33 18 -71 36 -85 40 -14 4 -33 14 -42 23 -10 8 -18 12 -18 8z"/>
<path d="M4380 5146 c0 -18 44 -50 48 -36 4 12 -19 44 -35 48 -7 1 -13 -4 -13
-12z"/>
<path d="M4530 4996 c0 -2 7 -6 15 -10 8 -3 15 -1 15 4 0 6 -7 10 -15 10 -8 0
-15 -2 -15 -4z"/>
<path d="M7850 4889 c0 -5 5 -7 10 -4 6 3 10 8 10 11 0 2 -4 4 -10 4 -5 0 -10
-5 -10 -11z"/>
<path d="M8123 4861 c-3 -11 -10 -18 -15 -15 -5 3 -4 -3 4 -15 7 -12 16 -21
19 -21 13 0 31 30 27 46 -5 26 -29 29 -35 5z"/>
<path d="M4172 4844 c10 -10 20 -15 24 -12 3 4 -5 12 -18 18 -22 12 -22 12 -6
-6z"/>
<path d="M7930 4805 c-7 -14 -11 -28 -8 -31 10 -9 49 20 46 35 -5 25 -24 23
-38 -4z"/>
<path d="M8217 4803 c-12 -12 -7 -31 10 -37 19 -8 48 17 39 33 -8 12 -39 15
-49 4z"/>
<path d="M7836 4785 c-19 -14 -22 -49 -3 -42 6 2 13 9 13 15 3 23 4 23 20 7
12 -12 19 -13 30 -4 8 6 14 15 14 19 0 13 -57 17 -74 5z"/>
<path d="M7348 4703 c7 -3 16 -2 19 1 4 3 -2 6 -13 5 -11 0 -14 -3 -6 -6z"/>
<path d="M4625 4570 c-4 -6 10 -10 34 -10 23 0 41 5 41 10 0 6 -15 10 -34 10
-19 0 -38 -4 -41 -10z"/>
<path d="M7540 4574 c0 -3 5 -14 11 -25 8 -16 13 -18 25 -8 12 10 12 13 -3 25
-19 14 -33 18 -33 8z"/>
<path d="M4585 4550 c3 -5 8 -10 11 -10 2 0 4 5 4 10 0 6 -5 10 -11 10 -5 0
-7 -4 -4 -10z"/>
<path d="M4386 4535 c-11 -8 -18 -16 -15 -18 50 -40 102 -47 162 -22 52 21 52
31 2 44 -60 15 -126 13 -149 -4z"/>
<path d="M5973 4381 c-13 -11 -23 -22 -23 -25 0 -10 39 18 44 31 7 17 6 16
-21 -6z"/>
<path d="M7360 4329 c0 -8 -9 -20 -20 -27 -11 -7 -20 -21 -20 -32 0 -24 8 -25
32 -3 10 9 18 12 18 6 0 -13 42 -11 47 2 2 6 -10 24 -27 40 -20 19 -30 24 -30
14z"/>
<path d="M7626 4325 c-3 -8 -1 -15 4 -15 6 0 10 7 10 15 0 8 -2 15 -4 15 -2 0
-6 -7 -10 -15z"/>
<path d="M7464 4287 c-2 -7 0 -26 5 -40 7 -17 7 -27 1 -27 -6 0 -10 7 -10 16
0 8 -5 12 -10 9 -15 -9 7 -45 29 -45 18 0 35 26 44 68 3 12 1 20 -4 17 -5 -3
-18 -1 -29 5 -16 8 -22 8 -26 -3z"/>
<path d="M5816 4211 c-3 -5 3 -11 14 -14 13 -3 20 0 20 9 0 15 -26 19 -34 5z"/>
<path d="M7324 4194 c3 -9 6 -21 6 -27 0 -16 20 14 20 31 0 6 -7 12 -16 12
-11 0 -14 -5 -10 -16z"/>
<path d="M7229 4078 c-1 -7 -1 -17 0 -22 1 -5 -3 -12 -9 -16 -11 -7 -3 -40 10
-40 18 0 31 31 25 60 -7 30 -24 42 -26 18z"/>
<path d="M5457 4073 c-13 -12 -7 -33 8 -33 8 0 15 9 15 20 0 20 -11 26 -23 13z"/>
<path d="M5110 4050 c-7 -4 -9 -13 -6 -19 10 -16 46 -14 46 3 0 17 -23 27 -40
16z"/>
<path d="M6977 4010 c-3 -11 -1 -20 4 -20 5 0 9 9 9 20 0 11 -2 20 -4 20 -2 0
-6 -9 -9 -20z"/>
<path d="M7042 4013 c2 -13 -3 -18 -18 -17 -17 0 -20 -6 -20 -38 1 -21 -3 -38
-7 -38 -5 0 -5 -5 -2 -11 4 -6 13 -8 21 -5 11 4 13 -2 8 -33 -10 -62 24 -66
61 -9 11 17 28 33 38 34 26 4 32 11 19 27 -7 8 -8 17 -4 22 4 4 -3 3 -15 -4
-18 -9 -24 -8 -37 11 -9 12 -16 35 -16 50 0 19 -5 28 -15 28 -10 0 -15 -7 -13
-17z"/>
<path d="M7160 3980 c-9 -6 -10 -10 -3 -10 6 0 15 5 18 10 8 12 4 12 -15 0z"/>
<path d="M6900 3957 c0 -10 7 -20 16 -24 19 -7 41 11 25 21 -6 4 -11 2 -11 -5
0 -7 -7 -4 -15 7 -13 17 -14 18 -15 1z"/>
<path d="M4780 3946 c0 -9 7 -16 16 -16 9 0 14 5 12 12 -6 18 -28 21 -28 4z"/>
<path d="M6851 3911 c-10 -7 -8 -12 10 -24 27 -20 43 -13 29 14 -12 21 -18 23
-39 10z"/>
<path d="M7155 3899 c-10 -15 3 -25 16 -12 7 7 7 13 1 17 -6 3 -14 1 -17 -5z"/>
<path d="M7100 3872 c0 -16 28 -34 34 -23 4 6 -3 15 -14 21 -11 6 -20 7 -20 2z"/>
<path d="M7067 3754 c-9 -9 4 -34 18 -34 14 0 27 25 18 34 -4 3 -12 6 -18 6
-6 0 -14 -3 -18 -6z"/>
<path d="M7231 3694 c0 -11 3 -14 6 -6 3 7 2 16 -1 19 -3 4 -6 -2 -5 -13z"/>
<path d="M7620 3611 c0 -17 18 -21 24 -6 3 9 0 15 -9 15 -8 0 -15 -4 -15 -9z"/>
<path d="M7100 3452 c0 -12 19 -26 26 -19 2 2 -2 10 -11 17 -9 8 -15 8 -15 2z"/>
<path d="M6883 3443 c-18 -6 -16 -33 1 -33 15 0 30 27 18 33 -4 3 -13 2 -19 0z"/>
<path d="M6928 3353 c6 -2 18 -2 25 0 6 3 1 5 -13 5 -14 0 -19 -2 -12 -5z"/>
<path d="M7904 3302 c-9 -5 -8 -11 2 -20 12 -11 14 -9 14 8 0 22 0 23 -16 12z"/>
<path d="M8071 3114 c-10 -12 -10 -19 -2 -27 6 -6 11 -9 12 -6 0 2 2 14 5 27
5 26 3 26 -15 6z"/>
<path d="M5200 2539 c0 -24 23 -21 28 4 2 10 -3 17 -12 17 -10 0 -16 -9 -16
-21z"/>
<path d="M4995 2540 c-3 -5 1 -10 10 -10 9 0 13 5 10 10 -3 6 -8 10 -10 10 -2
0 -7 -4 -10 -10z"/>
<path d="M4690 2499 c0 -5 5 -7 10 -4 6 3 10 8 10 11 0 2 -4 4 -10 4 -5 0 -10
-5 -10 -11z"/>
<path d="M4672 2458 c-12 -12 -17 -58 -6 -58 13 0 35 32 31 45 -3 7 -1 16 6
19 7 3 6 5 -3 5 -9 1 -21 -4 -28 -11z"/>
<path d="M3417 2390 c-3 -10 1 -24 9 -31 8 -6 14 -8 14 -3 0 5 3 19 6 32 5 16
2 22 -9 22 -8 0 -17 -9 -20 -20z"/>
<path d="M3645 2370 c3 -5 10 -10 16 -10 5 0 9 5 9 10 0 6 -7 10 -16 10 -8 0
-12 -4 -9 -10z"/>
<path d="M3360 2326 c0 -32 16 -41 30 -19 9 16 10 15 8 -6 -2 -13 3 -26 10
-28 21 -8 14 35 -10 57 -29 26 -38 25 -38 -4z"/>
<path d="M3235 2309 c-11 -16 -1 -19 13 -3 7 8 8 14 3 14 -5 0 -13 -5 -16 -11z"/>
<path d="M3570 2299 c0 -5 5 -7 10 -4 6 3 10 8 10 11 0 2 -4 4 -10 4 -5 0 -10
-5 -10 -11z"/>
<path d="M3602 2301 c2 -7 7 -12 11 -12 12 1 9 15 -3 20 -7 2 -11 -2 -8 -8z"/>
<path d="M3296 2234 c-8 -22 -8 -24 8 -24 19 0 28 27 11 34 -7 2 -16 -2 -19
-10z"/>
<path d="M4110 2111 c0 -6 4 -12 8 -15 5 -3 9 1 9 9 0 8 -4 15 -9 15 -4 0 -8
-4 -8 -9z"/>
<path d="M4144 2095 c-2 -21 1 -23 17 -14 17 9 18 12 5 24 -19 20 -21 19 -22
-10z"/>
</g>
</svg>
